M48
;Layer_Color=9474304
;FILE_FORMAT=2:5
INCH,LZ
;TYPE=PLATED
T1F00S00C0.02756
T2F00S00C0.03500
T3F00S00C0.03543
T4F00S00C0.04724
T7F00S00C0.06102
T8F00S00C0.06400
T9F00S00C0.07283
T10F00S00C0.15354
T11F00S00C0.20200
T12F00S00C0.23622
;TYPE=NON_PLATED
T13F00S00C0.07795
T14F00S00C0.12205
%
T01
X0636Y00365
X02175Y00845
X0197Y0584
T02
X014Y0047
X05695Y0085
X05795Y0095
X05595
X015Y0057
X013
T03
X03295Y0474
Y0484
X00105Y05935
Y06035
X0636343Y0617657
X0656343
T04
X04165Y0036
X0430419
Y0049919
X042346Y004296
X04165Y0049919
T07
X0555158Y0022
X0574843
T08
X0659Y01483
X0469Y01357
X0233Y01483
X0043Y01357
Y05557
X0233Y05683
X0469Y05557
X0659Y05683
T09
X0534Y0142
X0564
X0594
X0168
X0138
X0108
Y0562
X0068
X0168
X0208
X0208283Y0630681
X0238283
X0315803
X0345803
X0494Y0562
X0534
X0594
X0634
T10
X0668921Y0172
X0459079
X0242921
X0033079
Y0352
X0242921
X0459079
X0668921
X0033079Y0532
X0242921
X0459079
X0668921
T11
X0634Y0142
X0494
X0208
X0068
T12
X002Y0021693
X068
X0019Y063
X068
T13
X0362094Y0293957
T14
X0238Y0041213
X0305283
X0053717Y0609527
X0121
X0515602Y0609394
X0582886
M30
