G04*
G04 #@! TF.GenerationSoftware,Altium Limited,Altium Designer,19.0.15 (446)*
G04*
G04 Layer_Color=2752767*
%FSLAX25Y25*%
%MOIN*%
G70*
G01*
G75*
%ADD52C,0.00200*%
%ADD53C,0.00267*%
%ADD54C,0.00133*%
D52*
X9700Y602700D02*
Y604300D01*
X11300D01*
Y602700D01*
X9700D01*
Y592700D02*
Y594300D01*
X11300D01*
Y592700D01*
X9700D01*
X208283Y629881D02*
X207483Y631481D01*
X209083D01*
X208283Y629881D01*
X315803D02*
X315003Y631481D01*
X316603D01*
X315803Y629881D01*
X345803D02*
X345003Y631481D01*
X346603D01*
X345803Y629881D01*
X238283D02*
X237483Y631481D01*
X239083D01*
X238283Y629881D01*
X582886Y608594D02*
X583286Y608994D01*
X583686D01*
X583286Y609394D01*
X583686Y609794D01*
X583286D01*
X582886Y610194D01*
X582486Y609794D01*
X582086D01*
X582486Y609394D01*
X582086Y608994D01*
X582486D01*
X582886Y608594D01*
X515602D02*
X516002Y608994D01*
X516402D01*
X516002Y609394D01*
X516402Y609794D01*
X516002D01*
X515602Y610194D01*
X515202Y609794D01*
X514802D01*
X515202Y609394D01*
X514802Y608994D01*
X515202D01*
X515602Y608594D01*
X563188Y615700D02*
X563588Y616500D01*
X563188Y617300D01*
X563988Y616900D01*
X564788Y617300D01*
X564388Y616500D01*
X564788Y615700D01*
X563988Y616100D01*
X563188Y615700D01*
X534100Y616100D02*
Y615700D01*
X534900D01*
Y616100D01*
X535300D01*
Y616900D01*
X534900D01*
Y617300D01*
X534100D01*
Y616900D01*
X533700D01*
Y616100D01*
X534100D01*
X554357Y21200D02*
X554757D01*
X555158Y21600D01*
X555557Y21200D01*
X555958D01*
Y21600D01*
X555557Y22000D01*
X555958Y22400D01*
Y22800D01*
X555557D01*
X555158Y22400D01*
X554757Y22800D01*
X554357D01*
Y22400D01*
X554757Y22000D01*
X554357Y21600D01*
Y21200D01*
X574043D02*
X574442D01*
X574843Y21600D01*
X575243Y21200D01*
X575642D01*
Y21600D01*
X575243Y22000D01*
X575642Y22400D01*
Y22800D01*
X575243D01*
X574843Y22400D01*
X574442Y22800D01*
X574043D01*
Y22400D01*
X574442Y22000D01*
X574043Y21600D01*
Y21200D01*
X216700Y84500D02*
X217500Y85300D01*
X218300Y84500D01*
X217500Y83700D01*
X216700Y84500D01*
X72214Y616234D02*
Y615834D01*
X73014D01*
Y616234D01*
X73414D01*
Y617034D01*
X73014D01*
Y617434D01*
X72214D01*
Y617034D01*
X71814D01*
Y616234D01*
X72214D01*
X101302Y615834D02*
X101702Y616634D01*
X101302Y617434D01*
X102102Y617034D01*
X102902Y617434D01*
X102502Y616634D01*
X102902Y615834D01*
X102102Y616234D01*
X101302Y615834D01*
X53717Y608728D02*
X54117Y609128D01*
X54517D01*
X54117Y609527D01*
X54517Y609928D01*
X54117D01*
X53717Y610327D01*
X53317Y609928D01*
X52917D01*
X53317Y609527D01*
X52917Y609128D01*
X53317D01*
X53717Y608728D01*
X121000D02*
X121400Y609128D01*
X121800D01*
X121400Y609527D01*
X121800Y609928D01*
X121400D01*
X121000Y610327D01*
X120600Y609928D01*
X120200D01*
X120600Y609527D01*
X120200Y609128D01*
X120600D01*
X121000Y608728D01*
X568700Y84200D02*
Y85800D01*
X570300D01*
Y84200D01*
X568700D01*
X569100Y84600D02*
Y85400D01*
X569900D01*
Y84600D01*
X569100D01*
X578700Y94200D02*
Y95800D01*
X580300D01*
Y94200D01*
X578700D01*
X579100Y94600D02*
Y95400D01*
X579900D01*
Y94600D01*
X579100D01*
X558700Y94200D02*
Y95800D01*
X560300D01*
Y94200D01*
X558700D01*
X559100Y94600D02*
Y95400D01*
X559900D01*
Y94600D01*
X559100D01*
X139200Y46200D02*
Y47800D01*
X140800D01*
Y46200D01*
X139200D01*
X139600Y46600D02*
Y47400D01*
X140400D01*
Y46600D01*
X139600D01*
X149200Y56200D02*
Y57800D01*
X150800D01*
Y56200D01*
X149200D01*
X149600Y56600D02*
Y57400D01*
X150400D01*
Y56600D01*
X149600D01*
X129200Y56200D02*
Y57800D01*
X130800D01*
Y56200D01*
X129200D01*
X129600Y56600D02*
Y57400D01*
X130400D01*
Y56600D01*
X129600D01*
X635200Y36500D02*
X636000Y37300D01*
X636800Y36500D01*
X636000Y35700D01*
X635200Y36500D01*
X494000Y561200D02*
X493200Y562800D01*
X494800D01*
X494000Y561200D01*
X534000Y141200D02*
X533200Y142800D01*
X534800D01*
X534000Y141200D01*
X564000D02*
X563200Y142800D01*
X564800D01*
X564000Y141200D01*
X594000D02*
X593200Y142800D01*
X594800D01*
X594000Y141200D01*
X668921Y171200D02*
X668121Y172800D01*
X669721D01*
X668921Y171200D01*
Y171600D02*
X668521Y172400D01*
X669321D01*
X668921Y171600D01*
X459079Y351200D02*
X458279Y352800D01*
X459879D01*
X459079Y351200D01*
Y351600D02*
X458679Y352400D01*
X459479D01*
X459079Y351600D01*
X668921Y351200D02*
X668121Y352800D01*
X669721D01*
X668921Y351200D01*
Y351600D02*
X668521Y352400D01*
X669321D01*
X668921Y351600D01*
X459079Y171200D02*
X458279Y172800D01*
X459879D01*
X459079Y171200D01*
Y171600D02*
X458679Y172400D01*
X459479D01*
X459079Y171600D01*
X659000Y147500D02*
X659400Y147900D01*
X659800D01*
X659400Y148300D01*
X659800Y148700D01*
X659400D01*
X659000Y149100D01*
X658600Y148700D01*
X658200D01*
X658600Y148300D01*
X658200Y147900D01*
X658600D01*
X659000Y147500D01*
Y147900D02*
X659200Y148100D01*
X659400D01*
X659200Y148300D01*
X659400Y148500D01*
X659200D01*
X659000Y148700D01*
X658800Y148500D01*
X658600D01*
X658800Y148300D01*
X658600Y148100D01*
X658800D01*
X659000Y147900D01*
X469000Y134900D02*
X469400Y135300D01*
X469800D01*
X469400Y135700D01*
X469800Y136100D01*
X469400D01*
X469000Y136500D01*
X468600Y136100D01*
X468200D01*
X468600Y135700D01*
X468200Y135300D01*
X468600D01*
X469000Y134900D01*
Y135300D02*
X469200Y135500D01*
X469400D01*
X469200Y135700D01*
X469400Y135900D01*
X469200D01*
X469000Y136100D01*
X468800Y135900D01*
X468600D01*
X468800Y135700D01*
X468600Y135500D01*
X468800D01*
X469000Y135300D01*
X534000Y561200D02*
X533200Y562800D01*
X534800D01*
X534000Y561200D01*
X594000D02*
X593200Y562800D01*
X594800D01*
X594000Y561200D01*
X634000D02*
X633200Y562800D01*
X634800D01*
X634000Y561200D01*
X668921Y531200D02*
X668121Y532800D01*
X669721D01*
X668921Y531200D01*
Y531600D02*
X668521Y532400D01*
X669321D01*
X668921Y531600D01*
X659000Y567500D02*
X659400Y567900D01*
X659800D01*
X659400Y568300D01*
X659800Y568700D01*
X659400D01*
X659000Y569100D01*
X658600Y568700D01*
X658200D01*
X658600Y568300D01*
X658200Y567900D01*
X658600D01*
X659000Y567500D01*
Y567900D02*
X659200Y568100D01*
X659400D01*
X659200Y568300D01*
X659400Y568500D01*
X659200D01*
X659000Y568700D01*
X658800Y568500D01*
X658600D01*
X658800Y568300D01*
X658600Y568100D01*
X658800D01*
X659000Y567900D01*
X459079Y531200D02*
X458279Y532800D01*
X459879D01*
X459079Y531200D01*
Y531600D02*
X458679Y532400D01*
X459479D01*
X459079Y531600D01*
X469000Y554900D02*
X469400Y555300D01*
X469800D01*
X469400Y555700D01*
X469800Y556100D01*
X469400D01*
X469000Y556500D01*
X468600Y556100D01*
X468200D01*
X468600Y555700D01*
X468200Y555300D01*
X468600D01*
X469000Y554900D01*
Y555300D02*
X469200Y555500D01*
X469400D01*
X469200Y555700D01*
X469400Y555900D01*
X469200D01*
X469000Y556100D01*
X468800Y555900D01*
X468600D01*
X468800Y555700D01*
X468600Y555500D01*
X468800D01*
X469000Y555300D01*
X635543Y616857D02*
Y618457D01*
X637143D01*
Y616857D01*
X635543D01*
X655543D02*
Y618457D01*
X657143D01*
Y616857D01*
X655543D01*
X429619Y35200D02*
X430019Y36000D01*
X429619Y36800D01*
X430419Y36400D01*
X431219Y36800D01*
X430819Y36000D01*
X431219Y35200D01*
X430419Y35600D01*
X429619Y35200D01*
X430019Y35600D02*
X430219Y36000D01*
X430019Y36400D01*
X430419Y36200D01*
X430819Y36400D01*
X430619Y36000D01*
X430819Y35600D01*
X430419Y35800D01*
X430019Y35600D01*
X415700Y35200D02*
X416100Y36000D01*
X415700Y36800D01*
X416500Y36400D01*
X417300Y36800D01*
X416900Y36000D01*
X417300Y35200D01*
X416500Y35600D01*
X415700Y35200D01*
X416100Y35600D02*
X416300Y36000D01*
X416100Y36400D01*
X416500Y36200D01*
X416900Y36400D01*
X416700Y36000D01*
X416900Y35600D01*
X416500Y35800D01*
X416100Y35600D01*
X415700Y49119D02*
X416100Y49919D01*
X415700Y50719D01*
X416500Y50319D01*
X417300Y50719D01*
X416900Y49919D01*
X417300Y49119D01*
X416500Y49519D01*
X415700Y49119D01*
X416100Y49519D02*
X416300Y49919D01*
X416100Y50319D01*
X416500Y50119D01*
X416900Y50319D01*
X416700Y49919D01*
X416900Y49519D01*
X416500Y49719D01*
X416100Y49519D01*
X429619Y49119D02*
X430019Y49919D01*
X429619Y50719D01*
X430419Y50319D01*
X431219Y50719D01*
X430819Y49919D01*
X431219Y49119D01*
X430419Y49519D01*
X429619Y49119D01*
X430019Y49519D02*
X430219Y49919D01*
X430019Y50319D01*
X430419Y50119D01*
X430819Y50319D01*
X430619Y49919D01*
X430819Y49519D01*
X430419Y49719D01*
X430019Y49519D01*
X422660Y42160D02*
X423060Y42960D01*
X422660Y43760D01*
X423460Y43360D01*
X424260Y43760D01*
X423860Y42960D01*
X424260Y42160D01*
X423460Y42560D01*
X422660Y42160D01*
X423060Y42560D02*
X423260Y42960D01*
X423060Y43360D01*
X423460Y43160D01*
X423860Y43360D01*
X423660Y42960D01*
X423860Y42560D01*
X423460Y42760D01*
X423060Y42560D01*
X68000Y561200D02*
X67200Y562800D01*
X68800D01*
X68000Y561200D01*
X108000Y141200D02*
X107200Y142800D01*
X108800D01*
X108000Y141200D01*
X138000D02*
X137200Y142800D01*
X138800D01*
X138000Y141200D01*
X168000D02*
X167200Y142800D01*
X168800D01*
X168000Y141200D01*
X242921Y171200D02*
X242121Y172800D01*
X243721D01*
X242921Y171200D01*
Y171600D02*
X242521Y172400D01*
X243321D01*
X242921Y171600D01*
X33079Y351200D02*
X32279Y352800D01*
X33879D01*
X33079Y351200D01*
Y351600D02*
X32679Y352400D01*
X33479D01*
X33079Y351600D01*
X242921Y351200D02*
X242121Y352800D01*
X243721D01*
X242921Y351200D01*
Y351600D02*
X242521Y352400D01*
X243321D01*
X242921Y351600D01*
X33079Y171200D02*
X32279Y172800D01*
X33879D01*
X33079Y171200D01*
Y171600D02*
X32679Y172400D01*
X33479D01*
X33079Y171600D01*
X233000Y147500D02*
X233400Y147900D01*
X233800D01*
X233400Y148300D01*
X233800Y148700D01*
X233400D01*
X233000Y149100D01*
X232600Y148700D01*
X232200D01*
X232600Y148300D01*
X232200Y147900D01*
X232600D01*
X233000Y147500D01*
Y147900D02*
X233200Y148100D01*
X233400D01*
X233200Y148300D01*
X233400Y148500D01*
X233200D01*
X233000Y148700D01*
X232800Y148500D01*
X232600D01*
X232800Y148300D01*
X232600Y148100D01*
X232800D01*
X233000Y147900D01*
X43000Y134900D02*
X43400Y135300D01*
X43800D01*
X43400Y135700D01*
X43800Y136100D01*
X43400D01*
X43000Y136500D01*
X42600Y136100D01*
X42200D01*
X42600Y135700D01*
X42200Y135300D01*
X42600D01*
X43000Y134900D01*
Y135300D02*
X43200Y135500D01*
X43400D01*
X43200Y135700D01*
X43400Y135900D01*
X43200D01*
X43000Y136100D01*
X42800Y135900D01*
X42600D01*
X42800Y135700D01*
X42600Y135500D01*
X42800D01*
X43000Y135300D01*
X108000Y561200D02*
X107200Y562800D01*
X108800D01*
X108000Y561200D01*
X168000D02*
X167200Y562800D01*
X168800D01*
X168000Y561200D01*
X208000D02*
X207200Y562800D01*
X208800D01*
X208000Y561200D01*
X242921Y531200D02*
X242121Y532800D01*
X243721D01*
X242921Y531200D01*
Y531600D02*
X242521Y532400D01*
X243321D01*
X242921Y531600D01*
X233000Y567500D02*
X233400Y567900D01*
X233800D01*
X233400Y568300D01*
X233800Y568700D01*
X233400D01*
X233000Y569100D01*
X232600Y568700D01*
X232200D01*
X232600Y568300D01*
X232200Y567900D01*
X232600D01*
X233000Y567500D01*
Y567900D02*
X233200Y568100D01*
X233400D01*
X233200Y568300D01*
X233400Y568500D01*
X233200D01*
X233000Y568700D01*
X232800Y568500D01*
X232600D01*
X232800Y568300D01*
X232600Y568100D01*
X232800D01*
X233000Y567900D01*
X33079Y531200D02*
X32279Y532800D01*
X33879D01*
X33079Y531200D01*
Y531600D02*
X32679Y532400D01*
X33479D01*
X33079Y531600D01*
X43000Y554900D02*
X43400Y555300D01*
X43800D01*
X43400Y555700D01*
X43800Y556100D01*
X43400D01*
X43000Y556500D01*
X42600Y556100D01*
X42200D01*
X42600Y555700D01*
X42200Y555300D01*
X42600D01*
X43000Y554900D01*
Y555300D02*
X43200Y555500D01*
X43400D01*
X43200Y555700D01*
X43400Y555900D01*
X43200D01*
X43000Y556100D01*
X42800Y555900D01*
X42600D01*
X42800Y555700D01*
X42600Y555500D01*
X42800D01*
X43000Y555300D01*
X285986Y33706D02*
Y33306D01*
X286786D01*
Y33706D01*
X287186D01*
Y34506D01*
X286786D01*
Y34906D01*
X285986D01*
Y34506D01*
X285586D01*
Y33706D01*
X285986D01*
X256098Y33306D02*
X256498Y34106D01*
X256098Y34906D01*
X256898Y34506D01*
X257698Y34906D01*
X257298Y34106D01*
X257698Y33306D01*
X256898Y33706D01*
X256098Y33306D01*
X305283Y40413D02*
X305683Y40813D01*
X306083D01*
X305683Y41213D01*
X306083Y41613D01*
X305683D01*
X305283Y42013D01*
X304883Y41613D01*
X304483D01*
X304883Y41213D01*
X304483Y40813D01*
X304883D01*
X305283Y40413D01*
X238000D02*
X238400Y40813D01*
X238800D01*
X238400Y41213D01*
X238800Y41613D01*
X238400D01*
X238000Y42013D01*
X237600Y41613D01*
X237200D01*
X237600Y41213D01*
X237200Y40813D01*
X237600D01*
X238000Y40413D01*
X196200Y584000D02*
X197000Y584800D01*
X197800Y584000D01*
X197000Y583200D01*
X196200Y584000D01*
X328700Y483200D02*
Y484800D01*
X330300D01*
Y483200D01*
X328700D01*
Y473200D02*
Y474800D01*
X330300D01*
Y473200D01*
X328700D01*
X361694Y293557D02*
Y293157D01*
X362494D01*
Y293557D01*
X362894D01*
Y294357D01*
X362494D01*
Y294757D01*
X361694D01*
Y294357D01*
X361294D01*
Y293557D01*
X361694D01*
X361894Y293757D02*
Y293557D01*
X362294D01*
Y293757D01*
X362494D01*
Y294157D01*
X362294D01*
Y294357D01*
X361894D01*
Y294157D01*
X361694D01*
Y293757D01*
X361894D01*
D53*
X19800Y630000D02*
G03*
X19800Y630000I-800J0D01*
G01*
X680800D02*
G03*
X680800Y630000I-800J0D01*
G01*
Y21693D02*
G03*
X680800Y21693I-800J0D01*
G01*
X20800D02*
G03*
X20800Y21693I-800J0D01*
G01*
X634800Y142000D02*
G03*
X634800Y142000I-800J0D01*
G01*
X494800D02*
G03*
X494800Y142000I-800J0D01*
G01*
X208800D02*
G03*
X208800Y142000I-800J0D01*
G01*
X68800D02*
G03*
X68800Y142000I-800J0D01*
G01*
D54*
X634400D02*
G03*
X634400Y142000I-400J0D01*
G01*
X494400D02*
G03*
X494400Y142000I-400J0D01*
G01*
X208400D02*
G03*
X208400Y142000I-400J0D01*
G01*
X68400D02*
G03*
X68400Y142000I-400J0D01*
G01*
M02*
