G04*
G04 #@! TF.GenerationSoftware,Altium Limited,Altium Designer,19.0.15 (446)*
G04*
G04 Layer_Physical_Order=2*
G04 Layer_Color=16711680*
%FSLAX25Y25*%
%MOIN*%
G70*
G01*
G75*
%ADD35C,0.07795*%
%ADD36C,0.10000*%
%ADD37C,0.05906*%
%ADD38R,0.05906X0.05906*%
%ADD39C,0.15748*%
%ADD40O,0.11811X0.27559*%
%ADD41R,0.08071X0.08071*%
%ADD42C,0.08071*%
%ADD43C,0.03937*%
%ADD44C,0.07500*%
%ADD45C,0.27559*%
%ADD46C,0.13307*%
%ADD47C,0.07874*%
%ADD48C,0.07087*%
G36*
X700000Y0D02*
X0D01*
Y459500D01*
X700000D01*
Y0D01*
D02*
G37*
%LPC*%
G36*
X668921Y360719D02*
X667220Y360552D01*
X665585Y360055D01*
X664077Y359250D01*
X662756Y358165D01*
X661671Y356844D01*
X660866Y355337D01*
X660370Y353701D01*
X660202Y352000D01*
X660370Y350299D01*
X660866Y348663D01*
X661671Y347156D01*
X662756Y345835D01*
X664077Y344750D01*
X665585Y343945D01*
X667220Y343448D01*
X668921Y343281D01*
X670622Y343448D01*
X672258Y343945D01*
X673765Y344750D01*
X675087Y345835D01*
X676171Y347156D01*
X676977Y348663D01*
X677473Y350299D01*
X677640Y352000D01*
X677473Y353701D01*
X676977Y355337D01*
X676171Y356844D01*
X675087Y358165D01*
X673765Y359250D01*
X672258Y360055D01*
X670622Y360552D01*
X668921Y360719D01*
D02*
G37*
G36*
X459079D02*
X457378Y360552D01*
X455742Y360055D01*
X454235Y359250D01*
X452913Y358165D01*
X451829Y356844D01*
X451023Y355337D01*
X450527Y353701D01*
X450360Y352000D01*
X450527Y350299D01*
X451023Y348663D01*
X451829Y347156D01*
X452913Y345835D01*
X454235Y344750D01*
X455742Y343945D01*
X457378Y343448D01*
X459079Y343281D01*
X460780Y343448D01*
X462416Y343945D01*
X463923Y344750D01*
X465244Y345835D01*
X466328Y347156D01*
X467134Y348663D01*
X467630Y350299D01*
X467798Y352000D01*
X467630Y353701D01*
X467134Y355337D01*
X466328Y356844D01*
X465244Y358165D01*
X463923Y359250D01*
X462416Y360055D01*
X460780Y360552D01*
X459079Y360719D01*
D02*
G37*
G36*
X242921D02*
X241220Y360552D01*
X239584Y360055D01*
X238077Y359250D01*
X236756Y358165D01*
X235671Y356844D01*
X234866Y355337D01*
X234370Y353701D01*
X234202Y352000D01*
X234370Y350299D01*
X234866Y348663D01*
X235671Y347156D01*
X236756Y345835D01*
X238077Y344750D01*
X239584Y343945D01*
X241220Y343448D01*
X242921Y343281D01*
X244622Y343448D01*
X246258Y343945D01*
X247765Y344750D01*
X249087Y345835D01*
X250171Y347156D01*
X250977Y348663D01*
X251473Y350299D01*
X251640Y352000D01*
X251473Y353701D01*
X250977Y355337D01*
X250171Y356844D01*
X249087Y358165D01*
X247765Y359250D01*
X246258Y360055D01*
X244622Y360552D01*
X242921Y360719D01*
D02*
G37*
G36*
X33079D02*
X31378Y360552D01*
X29742Y360055D01*
X28235Y359250D01*
X26913Y358165D01*
X25829Y356844D01*
X25023Y355337D01*
X24527Y353701D01*
X24360Y352000D01*
X24527Y350299D01*
X25023Y348663D01*
X25829Y347156D01*
X26913Y345835D01*
X28235Y344750D01*
X29742Y343945D01*
X31378Y343448D01*
X33079Y343281D01*
X34780Y343448D01*
X36415Y343945D01*
X37923Y344750D01*
X39244Y345835D01*
X40328Y347156D01*
X41134Y348663D01*
X41630Y350299D01*
X41798Y352000D01*
X41630Y353701D01*
X41134Y355337D01*
X40328Y356844D01*
X39244Y358165D01*
X37923Y359250D01*
X36415Y360055D01*
X34780Y360552D01*
X33079Y360719D01*
D02*
G37*
G36*
X362094Y298897D02*
X360816Y298728D01*
X359624Y298235D01*
X358601Y297450D01*
X357816Y296427D01*
X357323Y295235D01*
X357154Y293957D01*
X357323Y292678D01*
X357816Y291487D01*
X358601Y290464D01*
X359624Y289679D01*
X360816Y289185D01*
X362094Y289017D01*
X363373Y289185D01*
X364564Y289679D01*
X365587Y290464D01*
X366372Y291487D01*
X366866Y292678D01*
X367034Y293957D01*
X366866Y295235D01*
X366372Y296427D01*
X365587Y297450D01*
X364564Y298235D01*
X363373Y298728D01*
X362094Y298897D01*
D02*
G37*
G36*
X668921Y180719D02*
X667220Y180552D01*
X665585Y180055D01*
X664077Y179250D01*
X662756Y178165D01*
X661671Y176844D01*
X660866Y175337D01*
X660370Y173701D01*
X660202Y172000D01*
X660370Y170299D01*
X660866Y168663D01*
X661671Y167156D01*
X662756Y165835D01*
X664077Y164750D01*
X665585Y163945D01*
X667220Y163448D01*
X668921Y163281D01*
X670622Y163448D01*
X672258Y163945D01*
X673765Y164750D01*
X675087Y165835D01*
X676171Y167156D01*
X676977Y168663D01*
X677473Y170299D01*
X677640Y172000D01*
X677473Y173701D01*
X676977Y175337D01*
X676171Y176844D01*
X675087Y178165D01*
X673765Y179250D01*
X672258Y180055D01*
X670622Y180552D01*
X668921Y180719D01*
D02*
G37*
G36*
X459079D02*
X457378Y180552D01*
X455742Y180055D01*
X454235Y179250D01*
X452913Y178165D01*
X451829Y176844D01*
X451023Y175337D01*
X450527Y173701D01*
X450360Y172000D01*
X450527Y170299D01*
X451023Y168663D01*
X451829Y167156D01*
X452913Y165835D01*
X454235Y164750D01*
X455742Y163945D01*
X457378Y163448D01*
X459079Y163281D01*
X460780Y163448D01*
X462416Y163945D01*
X463923Y164750D01*
X465244Y165835D01*
X466328Y167156D01*
X467134Y168663D01*
X467630Y170299D01*
X467798Y172000D01*
X467630Y173701D01*
X467134Y175337D01*
X466328Y176844D01*
X465244Y178165D01*
X463923Y179250D01*
X462416Y180055D01*
X460780Y180552D01*
X459079Y180719D01*
D02*
G37*
G36*
X242921D02*
X241220Y180552D01*
X239584Y180055D01*
X238077Y179250D01*
X236756Y178165D01*
X235671Y176844D01*
X234866Y175337D01*
X234370Y173701D01*
X234202Y172000D01*
X234370Y170299D01*
X234866Y168663D01*
X235671Y167156D01*
X236756Y165835D01*
X238077Y164750D01*
X239584Y163945D01*
X241220Y163448D01*
X242921Y163281D01*
X244622Y163448D01*
X246258Y163945D01*
X247765Y164750D01*
X249087Y165835D01*
X250171Y167156D01*
X250977Y168663D01*
X251473Y170299D01*
X251640Y172000D01*
X251473Y173701D01*
X250977Y175337D01*
X250171Y176844D01*
X249087Y178165D01*
X247765Y179250D01*
X246258Y180055D01*
X244622Y180552D01*
X242921Y180719D01*
D02*
G37*
G36*
X33079D02*
X31378Y180552D01*
X29742Y180055D01*
X28235Y179250D01*
X26913Y178165D01*
X25829Y176844D01*
X25023Y175337D01*
X24527Y173701D01*
X24360Y172000D01*
X24527Y170299D01*
X25023Y168663D01*
X25829Y167156D01*
X26913Y165835D01*
X28235Y164750D01*
X29742Y163945D01*
X31378Y163448D01*
X33079Y163281D01*
X34780Y163448D01*
X36415Y163945D01*
X37923Y164750D01*
X39244Y165835D01*
X40328Y167156D01*
X41134Y168663D01*
X41630Y170299D01*
X41798Y172000D01*
X41630Y173701D01*
X41134Y175337D01*
X40328Y176844D01*
X39244Y178165D01*
X37923Y179250D01*
X36415Y180055D01*
X34780Y180552D01*
X33079Y180719D01*
D02*
G37*
G36*
X659000Y152536D02*
X657904Y152392D01*
X656882Y151969D01*
X656004Y151295D01*
X655331Y150418D01*
X654908Y149396D01*
X654764Y148300D01*
X654908Y147204D01*
X655331Y146182D01*
X656004Y145305D01*
X656882Y144631D01*
X657904Y144208D01*
X659000Y144064D01*
X660096Y144208D01*
X661118Y144631D01*
X661996Y145305D01*
X662669Y146182D01*
X663092Y147204D01*
X663236Y148300D01*
X663092Y149396D01*
X662669Y150418D01*
X661996Y151295D01*
X661118Y151969D01*
X660096Y152392D01*
X659000Y152536D01*
D02*
G37*
G36*
X233000D02*
X231904Y152392D01*
X230882Y151969D01*
X230005Y151295D01*
X229331Y150418D01*
X228908Y149396D01*
X228764Y148300D01*
X228908Y147204D01*
X229331Y146182D01*
X230005Y145305D01*
X230882Y144631D01*
X231904Y144208D01*
X233000Y144064D01*
X234096Y144208D01*
X235118Y144631D01*
X235996Y145305D01*
X236669Y146182D01*
X237092Y147204D01*
X237236Y148300D01*
X237092Y149396D01*
X236669Y150418D01*
X235996Y151295D01*
X235118Y151969D01*
X234096Y152392D01*
X233000Y152536D01*
D02*
G37*
G36*
X534500Y150868D02*
Y142500D01*
X542868D01*
X542746Y143740D01*
X542238Y145412D01*
X541414Y146954D01*
X540305Y148305D01*
X538954Y149414D01*
X537412Y150238D01*
X535740Y150746D01*
X534500Y150868D01*
D02*
G37*
G36*
X533500D02*
X532260Y150746D01*
X530588Y150238D01*
X529046Y149414D01*
X527695Y148305D01*
X526586Y146954D01*
X525762Y145412D01*
X525254Y143740D01*
X525132Y142500D01*
X533500D01*
Y150868D01*
D02*
G37*
G36*
X494500Y156786D02*
Y142500D01*
X508786D01*
X508643Y144319D01*
X508100Y146581D01*
X507209Y148731D01*
X505994Y150714D01*
X504483Y152483D01*
X502714Y153994D01*
X500731Y155209D01*
X498581Y156100D01*
X496319Y156643D01*
X494500Y156786D01*
D02*
G37*
G36*
X493500D02*
X491681Y156643D01*
X489419Y156100D01*
X487269Y155209D01*
X485286Y153994D01*
X483517Y152483D01*
X482006Y150714D01*
X480791Y148731D01*
X479900Y146581D01*
X479357Y144319D01*
X479214Y142500D01*
X493500D01*
Y156786D01*
D02*
G37*
G36*
X108500Y150868D02*
Y142500D01*
X116868D01*
X116746Y143740D01*
X116238Y145412D01*
X115414Y146954D01*
X114305Y148305D01*
X112954Y149414D01*
X111412Y150238D01*
X109740Y150746D01*
X108500Y150868D01*
D02*
G37*
G36*
X107500D02*
X106260Y150746D01*
X104588Y150238D01*
X103046Y149414D01*
X101695Y148305D01*
X100586Y146954D01*
X99762Y145412D01*
X99254Y143740D01*
X99132Y142500D01*
X107500D01*
Y150868D01*
D02*
G37*
G36*
X68500Y156786D02*
Y142500D01*
X82786D01*
X82643Y144319D01*
X82100Y146581D01*
X81209Y148731D01*
X79994Y150714D01*
X78483Y152483D01*
X76714Y153994D01*
X74730Y155209D01*
X72581Y156100D01*
X70319Y156643D01*
X68500Y156786D01*
D02*
G37*
G36*
X67500D02*
X65681Y156643D01*
X63419Y156100D01*
X61269Y155209D01*
X59286Y153994D01*
X57517Y152483D01*
X56006Y150714D01*
X54791Y148731D01*
X53900Y146581D01*
X53357Y144319D01*
X53214Y142500D01*
X67500D01*
Y156786D01*
D02*
G37*
G36*
X542868Y141500D02*
X534500D01*
Y133132D01*
X535740Y133254D01*
X537412Y133762D01*
X538954Y134586D01*
X540305Y135695D01*
X541414Y137046D01*
X542238Y138588D01*
X542746Y140260D01*
X542868Y141500D01*
D02*
G37*
G36*
X533500D02*
X525132D01*
X525254Y140260D01*
X525762Y138588D01*
X526586Y137046D01*
X527695Y135695D01*
X529046Y134586D01*
X530588Y133762D01*
X532260Y133254D01*
X533500Y133132D01*
Y141500D01*
D02*
G37*
G36*
X116868D02*
X108500D01*
Y133132D01*
X109740Y133254D01*
X111412Y133762D01*
X112954Y134586D01*
X114305Y135695D01*
X115414Y137046D01*
X116238Y138588D01*
X116746Y140260D01*
X116868Y141500D01*
D02*
G37*
G36*
X107500D02*
X99132D01*
X99254Y140260D01*
X99762Y138588D01*
X100586Y137046D01*
X101695Y135695D01*
X103046Y134586D01*
X104588Y133762D01*
X106260Y133254D01*
X107500Y133132D01*
Y141500D01*
D02*
G37*
G36*
X594000Y150917D02*
X592260Y150746D01*
X590588Y150238D01*
X589046Y149414D01*
X587695Y148305D01*
X586586Y146954D01*
X585762Y145412D01*
X585254Y143740D01*
X585083Y142000D01*
X585254Y140260D01*
X585762Y138588D01*
X586586Y137046D01*
X587695Y135695D01*
X589046Y134586D01*
X590588Y133762D01*
X592260Y133254D01*
X594000Y133083D01*
X595740Y133254D01*
X597412Y133762D01*
X598954Y134586D01*
X600305Y135695D01*
X601414Y137046D01*
X602238Y138588D01*
X602746Y140260D01*
X602917Y142000D01*
X602746Y143740D01*
X602238Y145412D01*
X601414Y146954D01*
X600305Y148305D01*
X598954Y149414D01*
X597412Y150238D01*
X595740Y150746D01*
X594000Y150917D01*
D02*
G37*
G36*
X564000D02*
X562260Y150746D01*
X560588Y150238D01*
X559046Y149414D01*
X557695Y148305D01*
X556586Y146954D01*
X555762Y145412D01*
X555254Y143740D01*
X555083Y142000D01*
X555254Y140260D01*
X555762Y138588D01*
X556586Y137046D01*
X557695Y135695D01*
X559046Y134586D01*
X560588Y133762D01*
X562260Y133254D01*
X564000Y133083D01*
X565740Y133254D01*
X567412Y133762D01*
X568954Y134586D01*
X570305Y135695D01*
X571414Y137046D01*
X572238Y138588D01*
X572746Y140260D01*
X572917Y142000D01*
X572746Y143740D01*
X572238Y145412D01*
X571414Y146954D01*
X570305Y148305D01*
X568954Y149414D01*
X567412Y150238D01*
X565740Y150746D01*
X564000Y150917D01*
D02*
G37*
G36*
X168000D02*
X166260Y150746D01*
X164588Y150238D01*
X163046Y149414D01*
X161695Y148305D01*
X160586Y146954D01*
X159762Y145412D01*
X159254Y143740D01*
X159083Y142000D01*
X159254Y140260D01*
X159762Y138588D01*
X160586Y137046D01*
X161695Y135695D01*
X163046Y134586D01*
X164588Y133762D01*
X166260Y133254D01*
X168000Y133083D01*
X169740Y133254D01*
X171412Y133762D01*
X172954Y134586D01*
X174305Y135695D01*
X175414Y137046D01*
X176238Y138588D01*
X176746Y140260D01*
X176917Y142000D01*
X176746Y143740D01*
X176238Y145412D01*
X175414Y146954D01*
X174305Y148305D01*
X172954Y149414D01*
X171412Y150238D01*
X169740Y150746D01*
X168000Y150917D01*
D02*
G37*
G36*
X138000D02*
X136260Y150746D01*
X134588Y150238D01*
X133046Y149414D01*
X131695Y148305D01*
X130586Y146954D01*
X129762Y145412D01*
X129254Y143740D01*
X129083Y142000D01*
X129254Y140260D01*
X129762Y138588D01*
X130586Y137046D01*
X131695Y135695D01*
X133046Y134586D01*
X134588Y133762D01*
X136260Y133254D01*
X138000Y133083D01*
X139740Y133254D01*
X141412Y133762D01*
X142954Y134586D01*
X144305Y135695D01*
X145414Y137046D01*
X146238Y138588D01*
X146746Y140260D01*
X146917Y142000D01*
X146746Y143740D01*
X146238Y145412D01*
X145414Y146954D01*
X144305Y148305D01*
X142954Y149414D01*
X141412Y150238D01*
X139740Y150746D01*
X138000Y150917D01*
D02*
G37*
G36*
X469000Y139936D02*
X467904Y139792D01*
X466882Y139369D01*
X466005Y138696D01*
X465331Y137818D01*
X464908Y136796D01*
X464764Y135700D01*
X464908Y134604D01*
X465331Y133582D01*
X466005Y132704D01*
X466882Y132031D01*
X467904Y131608D01*
X469000Y131464D01*
X470096Y131608D01*
X471118Y132031D01*
X471995Y132704D01*
X472669Y133582D01*
X473092Y134604D01*
X473236Y135700D01*
X473092Y136796D01*
X472669Y137818D01*
X471995Y138696D01*
X471118Y139369D01*
X470096Y139792D01*
X469000Y139936D01*
D02*
G37*
G36*
X43000D02*
X41904Y139792D01*
X40882Y139369D01*
X40005Y138696D01*
X39331Y137818D01*
X38908Y136796D01*
X38764Y135700D01*
X38908Y134604D01*
X39331Y133582D01*
X40005Y132704D01*
X40882Y132031D01*
X41904Y131608D01*
X43000Y131464D01*
X44096Y131608D01*
X45118Y132031D01*
X45996Y132704D01*
X46669Y133582D01*
X47092Y134604D01*
X47236Y135700D01*
X47092Y136796D01*
X46669Y137818D01*
X45996Y138696D01*
X45118Y139369D01*
X44096Y139792D01*
X43000Y139936D01*
D02*
G37*
G36*
X508786Y141500D02*
X494500D01*
Y127214D01*
X496319Y127357D01*
X498581Y127900D01*
X500731Y128791D01*
X502714Y130006D01*
X504483Y131517D01*
X505994Y133286D01*
X507209Y135269D01*
X508100Y137419D01*
X508643Y139681D01*
X508786Y141500D01*
D02*
G37*
G36*
X493500D02*
X479214D01*
X479357Y139681D01*
X479900Y137419D01*
X480791Y135269D01*
X482006Y133286D01*
X483517Y131517D01*
X485286Y130006D01*
X487269Y128791D01*
X489419Y127900D01*
X491681Y127357D01*
X493500Y127214D01*
Y141500D01*
D02*
G37*
G36*
X82786D02*
X68500D01*
Y127214D01*
X70319Y127357D01*
X72581Y127900D01*
X74730Y128791D01*
X76714Y130006D01*
X78483Y131517D01*
X79994Y133286D01*
X81209Y135269D01*
X82100Y137419D01*
X82643Y139681D01*
X82786Y141500D01*
D02*
G37*
G36*
X67500D02*
X53214D01*
X53357Y139681D01*
X53900Y137419D01*
X54791Y135269D01*
X56006Y133286D01*
X57517Y131517D01*
X59286Y130006D01*
X61269Y128791D01*
X63419Y127900D01*
X65681Y127357D01*
X67500Y127214D01*
Y141500D01*
D02*
G37*
G36*
X634000Y156825D02*
X631681Y156643D01*
X629419Y156100D01*
X627270Y155209D01*
X625286Y153994D01*
X623517Y152483D01*
X622006Y150714D01*
X620791Y148731D01*
X619900Y146581D01*
X619357Y144319D01*
X619175Y142000D01*
X619357Y139681D01*
X619900Y137419D01*
X620791Y135269D01*
X622006Y133286D01*
X623517Y131517D01*
X625286Y130006D01*
X627270Y128791D01*
X629419Y127900D01*
X631681Y127357D01*
X634000Y127175D01*
X636319Y127357D01*
X638581Y127900D01*
X640730Y128791D01*
X642714Y130006D01*
X644483Y131517D01*
X645994Y133286D01*
X647209Y135269D01*
X648100Y137419D01*
X648643Y139681D01*
X648825Y142000D01*
X648643Y144319D01*
X648100Y146581D01*
X647209Y148731D01*
X645994Y150714D01*
X644483Y152483D01*
X642714Y153994D01*
X640730Y155209D01*
X638581Y156100D01*
X636319Y156643D01*
X634000Y156825D01*
D02*
G37*
G36*
X208000D02*
X205681Y156643D01*
X203419Y156100D01*
X201270Y155209D01*
X199286Y153994D01*
X197517Y152483D01*
X196006Y150714D01*
X194791Y148731D01*
X193900Y146581D01*
X193357Y144319D01*
X193175Y142000D01*
X193357Y139681D01*
X193900Y137419D01*
X194791Y135269D01*
X196006Y133286D01*
X197517Y131517D01*
X199286Y130006D01*
X201270Y128791D01*
X203419Y127900D01*
X205681Y127357D01*
X208000Y127175D01*
X210319Y127357D01*
X212581Y127900D01*
X214731Y128791D01*
X216714Y130006D01*
X218483Y131517D01*
X219994Y133286D01*
X221209Y135269D01*
X222100Y137419D01*
X222643Y139681D01*
X222825Y142000D01*
X222643Y144319D01*
X222100Y146581D01*
X221209Y148731D01*
X219994Y150714D01*
X218483Y152483D01*
X216714Y153994D01*
X214731Y155209D01*
X212581Y156100D01*
X210319Y156643D01*
X208000Y156825D01*
D02*
G37*
G36*
X560000Y99725D02*
Y95500D01*
X564225D01*
X564128Y96240D01*
X563649Y97395D01*
X562888Y98388D01*
X561896Y99149D01*
X560740Y99628D01*
X560000Y99725D01*
D02*
G37*
G36*
X559000D02*
X558260Y99628D01*
X557104Y99149D01*
X556112Y98388D01*
X555351Y97395D01*
X554872Y96240D01*
X554775Y95500D01*
X559000D01*
Y99725D01*
D02*
G37*
G36*
X564225Y94500D02*
X560000D01*
Y90275D01*
X560740Y90372D01*
X561896Y90851D01*
X562888Y91612D01*
X563649Y92605D01*
X564128Y93760D01*
X564225Y94500D01*
D02*
G37*
G36*
X559000D02*
X554775D01*
X554872Y93760D01*
X555351Y92605D01*
X556112Y91612D01*
X557104Y90851D01*
X558260Y90372D01*
X559000Y90275D01*
Y94500D01*
D02*
G37*
G36*
X579500Y99791D02*
X578260Y99628D01*
X577105Y99149D01*
X576112Y98388D01*
X575351Y97395D01*
X574872Y96240D01*
X574709Y95000D01*
X574872Y93760D01*
X575351Y92605D01*
X576112Y91612D01*
X577105Y90851D01*
X578260Y90372D01*
X579500Y90209D01*
X580740Y90372D01*
X581895Y90851D01*
X582888Y91612D01*
X583649Y92605D01*
X584128Y93760D01*
X584291Y95000D01*
X584128Y96240D01*
X583649Y97395D01*
X582888Y98388D01*
X581895Y99149D01*
X580740Y99628D01*
X579500Y99791D01*
D02*
G37*
G36*
X217500Y87494D02*
X216725Y87392D01*
X216003Y87093D01*
X215383Y86617D01*
X214907Y85997D01*
X214608Y85275D01*
X214506Y84500D01*
X214608Y83725D01*
X214907Y83003D01*
X215383Y82383D01*
X216003Y81907D01*
X216725Y81608D01*
X217500Y81506D01*
X218275Y81608D01*
X218997Y81907D01*
X219617Y82383D01*
X220093Y83003D01*
X220392Y83725D01*
X220494Y84500D01*
X220392Y85275D01*
X220093Y85997D01*
X219617Y86617D01*
X218997Y87093D01*
X218275Y87392D01*
X217500Y87494D01*
D02*
G37*
G36*
X569500Y89791D02*
X568260Y89628D01*
X567104Y89149D01*
X566112Y88388D01*
X565351Y87396D01*
X564872Y86240D01*
X564709Y85000D01*
X564872Y83760D01*
X565351Y82604D01*
X566112Y81612D01*
X567104Y80851D01*
X568260Y80372D01*
X569500Y80209D01*
X570740Y80372D01*
X571896Y80851D01*
X572888Y81612D01*
X573649Y82604D01*
X574128Y83760D01*
X574291Y85000D01*
X574128Y86240D01*
X573649Y87396D01*
X572888Y88388D01*
X571896Y89149D01*
X570740Y89628D01*
X569500Y89791D01*
D02*
G37*
G36*
X130500Y61725D02*
Y57500D01*
X134725D01*
X134628Y58240D01*
X134149Y59395D01*
X133388Y60388D01*
X132396Y61149D01*
X131240Y61628D01*
X130500Y61725D01*
D02*
G37*
G36*
X129500D02*
X128760Y61628D01*
X127604Y61149D01*
X126612Y60388D01*
X125851Y59395D01*
X125372Y58240D01*
X125275Y57500D01*
X129500D01*
Y61725D01*
D02*
G37*
G36*
X134725Y56500D02*
X130500D01*
Y52275D01*
X131240Y52372D01*
X132396Y52851D01*
X133388Y53612D01*
X134149Y54605D01*
X134628Y55760D01*
X134725Y56500D01*
D02*
G37*
G36*
X129500D02*
X125275D01*
X125372Y55760D01*
X125851Y54605D01*
X126612Y53612D01*
X127604Y52851D01*
X128760Y52372D01*
X129500Y52275D01*
Y56500D01*
D02*
G37*
G36*
X150000Y61791D02*
X148760Y61628D01*
X147605Y61149D01*
X146612Y60388D01*
X145851Y59395D01*
X145372Y58240D01*
X145209Y57000D01*
X145372Y55760D01*
X145851Y54605D01*
X146612Y53612D01*
X147605Y52851D01*
X148760Y52372D01*
X150000Y52209D01*
X151240Y52372D01*
X152395Y52851D01*
X153388Y53612D01*
X154149Y54605D01*
X154628Y55760D01*
X154791Y57000D01*
X154628Y58240D01*
X154149Y59395D01*
X153388Y60388D01*
X152395Y61149D01*
X151240Y61628D01*
X150000Y61791D01*
D02*
G37*
G36*
X416500Y54502D02*
X415314Y54346D01*
X414209Y53888D01*
X413660Y53467D01*
X416500Y50626D01*
X419340Y53467D01*
X418791Y53888D01*
X417686Y54346D01*
X416500Y54502D01*
D02*
G37*
G36*
X420047Y52760D02*
X417207Y49919D01*
X420047Y47079D01*
X420469Y47628D01*
X420926Y48733D01*
X421082Y49919D01*
X420926Y51105D01*
X420469Y52211D01*
X420047Y52760D01*
D02*
G37*
G36*
X412953D02*
X412531Y52211D01*
X412074Y51105D01*
X411917Y49919D01*
X412074Y48733D01*
X412531Y47628D01*
X412953Y47079D01*
X415793Y49919D01*
X412953Y52760D01*
D02*
G37*
G36*
X430419Y54502D02*
X429233Y54346D01*
X428128Y53888D01*
X427179Y53160D01*
X426451Y52211D01*
X425993Y51105D01*
X425837Y49919D01*
X425993Y48733D01*
X426451Y47628D01*
X427179Y46679D01*
X428128Y45951D01*
X429233Y45493D01*
X430419Y45337D01*
X431605Y45493D01*
X432711Y45951D01*
X433660Y46679D01*
X434388Y47628D01*
X434846Y48733D01*
X435002Y49919D01*
X434846Y51105D01*
X434388Y52211D01*
X433660Y53160D01*
X432711Y53888D01*
X431605Y54346D01*
X430419Y54502D01*
D02*
G37*
G36*
X416500Y49212D02*
X413660Y46372D01*
X414209Y45951D01*
X415314Y45493D01*
X416500Y45337D01*
X417686Y45493D01*
X418791Y45951D01*
X419340Y46372D01*
X416500Y49212D01*
D02*
G37*
G36*
X140000Y51791D02*
X138760Y51628D01*
X137604Y51149D01*
X136612Y50388D01*
X135851Y49395D01*
X135372Y48240D01*
X135209Y47000D01*
X135372Y45760D01*
X135851Y44605D01*
X136612Y43612D01*
X137604Y42851D01*
X138760Y42372D01*
X140000Y42209D01*
X141240Y42372D01*
X142395Y42851D01*
X143388Y43612D01*
X144149Y44605D01*
X144628Y45760D01*
X144791Y47000D01*
X144628Y48240D01*
X144149Y49395D01*
X143388Y50388D01*
X142395Y51149D01*
X141240Y51628D01*
X140000Y51791D01*
D02*
G37*
G36*
X423460Y47542D02*
X422274Y47386D01*
X421169Y46928D01*
X420220Y46200D01*
X419491Y45251D01*
X419033Y44146D01*
X418877Y42960D01*
X419033Y41774D01*
X419491Y40668D01*
X420220Y39720D01*
X421169Y38991D01*
X422274Y38533D01*
X423460Y38377D01*
X424646Y38533D01*
X425751Y38991D01*
X426700Y39720D01*
X427428Y40668D01*
X427886Y41774D01*
X428042Y42960D01*
X427886Y44146D01*
X427428Y45251D01*
X426700Y46200D01*
X425751Y46928D01*
X424646Y47386D01*
X423460Y47542D01*
D02*
G37*
G36*
X430419Y40582D02*
X429233Y40426D01*
X428128Y39969D01*
X427579Y39547D01*
X430419Y36707D01*
X433260Y39547D01*
X432711Y39969D01*
X431605Y40426D01*
X430419Y40582D01*
D02*
G37*
G36*
X257398Y48870D02*
Y34606D01*
X263837D01*
Y41980D01*
X263703Y43334D01*
X263308Y44636D01*
X262667Y45836D01*
X261804Y46887D01*
X260753Y47750D01*
X259553Y48391D01*
X258251Y48786D01*
X257398Y48870D01*
D02*
G37*
G36*
X256398D02*
X255544Y48786D01*
X254242Y48391D01*
X253043Y47750D01*
X251991Y46887D01*
X251128Y45836D01*
X250487Y44636D01*
X250092Y43334D01*
X249959Y41980D01*
Y34606D01*
X256398D01*
Y48870D01*
D02*
G37*
G36*
X305283Y48349D02*
X303891Y48212D01*
X302552Y47806D01*
X301318Y47147D01*
X300237Y46259D01*
X299349Y45178D01*
X298690Y43944D01*
X298284Y42605D01*
X298147Y41213D01*
X298284Y39820D01*
X298690Y38482D01*
X299349Y37248D01*
X300237Y36166D01*
X301318Y35279D01*
X302552Y34619D01*
X303891Y34213D01*
X305283Y34076D01*
X306676Y34213D01*
X308014Y34619D01*
X309248Y35279D01*
X310330Y36166D01*
X311217Y37248D01*
X311877Y38482D01*
X312283Y39820D01*
X312420Y41213D01*
X312283Y42605D01*
X311877Y43944D01*
X311217Y45178D01*
X310330Y46259D01*
X309248Y47147D01*
X308014Y47806D01*
X306676Y48212D01*
X305283Y48349D01*
D02*
G37*
G36*
X238000D02*
X236608Y48212D01*
X235269Y47806D01*
X234035Y47147D01*
X232954Y46259D01*
X232066Y45178D01*
X231406Y43944D01*
X231000Y42605D01*
X230863Y41213D01*
X231000Y39820D01*
X231406Y38482D01*
X232066Y37248D01*
X232954Y36166D01*
X234035Y35279D01*
X235269Y34619D01*
X236608Y34213D01*
X238000Y34076D01*
X239392Y34213D01*
X240731Y34619D01*
X241965Y35279D01*
X243046Y36166D01*
X243934Y37248D01*
X244594Y38482D01*
X245000Y39820D01*
X245137Y41213D01*
X245000Y42605D01*
X244594Y43944D01*
X243934Y45178D01*
X243046Y46259D01*
X241965Y47147D01*
X240731Y47806D01*
X239392Y48212D01*
X238000Y48349D01*
D02*
G37*
G36*
X636000Y39494D02*
X635225Y39392D01*
X634503Y39093D01*
X633883Y38617D01*
X633407Y37997D01*
X633108Y37275D01*
X633006Y36500D01*
X633108Y35725D01*
X633407Y35003D01*
X633883Y34383D01*
X634503Y33907D01*
X635225Y33608D01*
X636000Y33506D01*
X636775Y33608D01*
X637497Y33907D01*
X638117Y34383D01*
X638593Y35003D01*
X638892Y35725D01*
X638994Y36500D01*
X638892Y37275D01*
X638593Y37997D01*
X638117Y38617D01*
X637497Y39093D01*
X636775Y39392D01*
X636000Y39494D01*
D02*
G37*
G36*
X433967Y38840D02*
X431126Y36000D01*
X433967Y33160D01*
X434388Y33709D01*
X434846Y34814D01*
X435002Y36000D01*
X434846Y37186D01*
X434388Y38291D01*
X433967Y38840D01*
D02*
G37*
G36*
X426872D02*
X426451Y38291D01*
X425993Y37186D01*
X425837Y36000D01*
X425993Y34814D01*
X426451Y33709D01*
X426872Y33160D01*
X429712Y36000D01*
X426872Y38840D01*
D02*
G37*
G36*
X430419Y35293D02*
X427579Y32453D01*
X428128Y32031D01*
X429233Y31574D01*
X430419Y31418D01*
X431605Y31574D01*
X432711Y32031D01*
X433260Y32453D01*
X430419Y35293D01*
D02*
G37*
G36*
X416500Y40582D02*
X415314Y40426D01*
X414209Y39969D01*
X413260Y39240D01*
X412531Y38291D01*
X412074Y37186D01*
X411917Y36000D01*
X412074Y34814D01*
X412531Y33709D01*
X413260Y32760D01*
X414209Y32031D01*
X415314Y31574D01*
X416500Y31418D01*
X417686Y31574D01*
X418791Y32031D01*
X419740Y32760D01*
X420469Y33709D01*
X420926Y34814D01*
X421082Y36000D01*
X420926Y37186D01*
X420469Y38291D01*
X419740Y39240D01*
X418791Y39969D01*
X417686Y40426D01*
X416500Y40582D01*
D02*
G37*
G36*
X560193Y27035D02*
X555657D01*
Y22500D01*
X560193D01*
Y27035D01*
D02*
G37*
G36*
X554658D02*
X550122D01*
Y22500D01*
X554658D01*
Y27035D01*
D02*
G37*
G36*
X20500Y34504D02*
Y22193D01*
X32811D01*
X32692Y23703D01*
X32222Y25664D01*
X31450Y27527D01*
X30396Y29246D01*
X29087Y30780D01*
X27553Y32089D01*
X25834Y33143D01*
X23971Y33915D01*
X22010Y34385D01*
X20500Y34504D01*
D02*
G37*
G36*
X680500D02*
Y22193D01*
X692811D01*
X692692Y23703D01*
X692222Y25664D01*
X691450Y27527D01*
X690396Y29246D01*
X689087Y30780D01*
X687553Y32089D01*
X685834Y33143D01*
X683971Y33915D01*
X682010Y34385D01*
X680500Y34504D01*
D02*
G37*
G36*
X19500D02*
X17990Y34385D01*
X16029Y33915D01*
X14166Y33143D01*
X12447Y32089D01*
X10913Y30780D01*
X9604Y29246D01*
X8550Y27527D01*
X7778Y25664D01*
X7308Y23703D01*
X7189Y22193D01*
X19500D01*
Y34504D01*
D02*
G37*
G36*
X679500D02*
X677990Y34385D01*
X676029Y33915D01*
X674166Y33143D01*
X672447Y32089D01*
X670913Y30780D01*
X669604Y29246D01*
X668550Y27527D01*
X667778Y25664D01*
X667308Y23703D01*
X667189Y22193D01*
X679500D01*
Y34504D01*
D02*
G37*
G36*
X263837Y33606D02*
X257398D01*
Y19343D01*
X258251Y19427D01*
X259553Y19822D01*
X260753Y20463D01*
X261804Y21326D01*
X262667Y22377D01*
X263308Y23577D01*
X263703Y24879D01*
X263837Y26232D01*
Y33606D01*
D02*
G37*
G36*
X256398D02*
X249959D01*
Y26232D01*
X250092Y24879D01*
X250487Y23577D01*
X251128Y22377D01*
X251991Y21326D01*
X253043Y20463D01*
X254242Y19822D01*
X255544Y19427D01*
X256398Y19343D01*
Y33606D01*
D02*
G37*
G36*
X286386Y48919D02*
X285032Y48786D01*
X283730Y48391D01*
X282531Y47750D01*
X281479Y46887D01*
X280616Y45836D01*
X279975Y44636D01*
X279580Y43334D01*
X279447Y41980D01*
Y26232D01*
X279580Y24879D01*
X279975Y23577D01*
X280616Y22377D01*
X281479Y21326D01*
X282531Y20463D01*
X283730Y19822D01*
X285032Y19427D01*
X286386Y19294D01*
X287739Y19427D01*
X289041Y19822D01*
X290241Y20463D01*
X291292Y21326D01*
X292155Y22377D01*
X292796Y23577D01*
X293191Y24879D01*
X293325Y26232D01*
Y41980D01*
X293191Y43334D01*
X292796Y44636D01*
X292155Y45836D01*
X291292Y46887D01*
X290241Y47750D01*
X289041Y48391D01*
X287739Y48786D01*
X286386Y48919D01*
D02*
G37*
G36*
X560193Y21500D02*
X555657D01*
Y16965D01*
X560193D01*
Y21500D01*
D02*
G37*
G36*
X554658D02*
X550122D01*
Y16965D01*
X554658D01*
Y21500D01*
D02*
G37*
G36*
X574843Y27079D02*
X573528Y26906D01*
X572303Y26398D01*
X571251Y25591D01*
X570444Y24539D01*
X569937Y23314D01*
X569764Y22000D01*
X569937Y20685D01*
X570444Y19461D01*
X571251Y18409D01*
X572303Y17602D01*
X573528Y17094D01*
X574843Y16921D01*
X576157Y17094D01*
X577382Y17602D01*
X578434Y18409D01*
X579241Y19461D01*
X579748Y20685D01*
X579921Y22000D01*
X579748Y23314D01*
X579241Y24539D01*
X578434Y25591D01*
X577382Y26398D01*
X576157Y26906D01*
X574843Y27079D01*
D02*
G37*
G36*
X692811Y21193D02*
X680500D01*
Y8882D01*
X682010Y9001D01*
X683971Y9471D01*
X685834Y10243D01*
X687553Y11297D01*
X689087Y12606D01*
X690396Y14140D01*
X691450Y15859D01*
X692222Y17722D01*
X692692Y19683D01*
X692811Y21193D01*
D02*
G37*
G36*
X32811D02*
X20500D01*
Y8882D01*
X22010Y9001D01*
X23971Y9471D01*
X25834Y10243D01*
X27553Y11297D01*
X29087Y12606D01*
X30396Y14140D01*
X31450Y15859D01*
X32222Y17722D01*
X32692Y19683D01*
X32811Y21193D01*
D02*
G37*
G36*
X19500D02*
X7189D01*
X7308Y19683D01*
X7778Y17722D01*
X8550Y15859D01*
X9604Y14140D01*
X10913Y12606D01*
X12447Y11297D01*
X14166Y10243D01*
X16029Y9471D01*
X17990Y9001D01*
X19500Y8882D01*
Y21193D01*
D02*
G37*
G36*
X679500D02*
X667189D01*
X667308Y19683D01*
X667778Y17722D01*
X668550Y15859D01*
X669604Y14140D01*
X670913Y12606D01*
X672447Y11297D01*
X674166Y10243D01*
X676029Y9471D01*
X677990Y9001D01*
X679500Y8882D01*
Y21193D01*
D02*
G37*
%LPD*%
D35*
X362094Y293957D02*
D03*
D36*
X336303Y610803D02*
Y627181D01*
X283000Y557500D02*
X336303Y610803D01*
X215464Y557500D02*
X283000D01*
X210964Y562000D02*
X215464Y557500D01*
X208000Y562000D02*
X210964D01*
D37*
X10500Y603500D02*
D03*
X329500Y474000D02*
D03*
D38*
X10500Y593500D02*
D03*
X329500Y484000D02*
D03*
D39*
X208283Y630681D02*
D03*
X315803D02*
D03*
X345803D02*
D03*
X238283D02*
D03*
X494000Y562000D02*
D03*
X534000Y142000D02*
D03*
X564000D02*
D03*
X594000D02*
D03*
X534000Y562000D02*
D03*
X594000D02*
D03*
X634000D02*
D03*
X68000D02*
D03*
X108000Y142000D02*
D03*
X138000D02*
D03*
X168000D02*
D03*
X108000Y562000D02*
D03*
X168000D02*
D03*
X208000D02*
D03*
D40*
X563988Y616500D02*
D03*
X534500D02*
D03*
X72614Y616634D02*
D03*
X102102D02*
D03*
X286386Y34106D02*
D03*
X256898D02*
D03*
D41*
X555158Y22000D02*
D03*
D42*
X574843D02*
D03*
D43*
X217500Y84500D02*
D03*
X636000Y36500D02*
D03*
X197000Y584000D02*
D03*
D44*
X569500Y85000D02*
D03*
X579500Y95000D02*
D03*
X559500D02*
D03*
X140000Y47000D02*
D03*
X150000Y57000D02*
D03*
X130000D02*
D03*
D45*
X634000Y142000D02*
D03*
X494000D02*
D03*
X208000D02*
D03*
X68000D02*
D03*
D46*
X668921Y172000D02*
D03*
X459079Y352000D02*
D03*
X668921D02*
D03*
X459079Y172000D02*
D03*
X668921Y532000D02*
D03*
X459079D02*
D03*
X242921Y172000D02*
D03*
X33079Y352000D02*
D03*
X242921D02*
D03*
X33079Y172000D02*
D03*
X242921Y532000D02*
D03*
X33079D02*
D03*
D47*
X636343Y617657D02*
D03*
X656343D02*
D03*
D48*
X430419Y36000D02*
D03*
X416500D02*
D03*
Y49919D02*
D03*
X430419D02*
D03*
X423460Y42960D02*
D03*
M02*
