G04*
G04 #@! TF.GenerationSoftware,Altium Limited,Altium Designer,19.0.15 (446)*
G04*
G04 Layer_Color=8388736*
%FSLAX25Y25*%
%MOIN*%
G70*
G01*
G75*
%ADD17R,0.12008X0.05512*%
%ADD18R,0.10465X0.04945*%
%ADD19R,0.20000X0.25000*%
%ADD20R,0.04724X0.03150*%
%ADD21R,0.04383X0.05603*%
%ADD22C,0.06706*%
%ADD23R,0.06706X0.06706*%
%ADD24C,0.00800*%
%ADD25C,0.16548*%
%ADD26O,0.12611X0.28359*%
%ADD27R,0.08871X0.08871*%
%ADD28C,0.08871*%
%ADD29C,0.04737*%
%ADD30C,0.08300*%
%ADD31C,0.28359*%
%ADD32C,0.14107*%
%ADD33C,0.08674*%
%ADD34C,0.07887*%
%ADD35C,0.07795*%
D17*
X515602Y88248D02*
D03*
Y106752D02*
D03*
X616500Y101752D02*
D03*
Y83248D02*
D03*
X173500Y92252D02*
D03*
Y73748D02*
D03*
X140500Y93752D02*
D03*
Y75248D02*
D03*
D18*
X301000Y500059D02*
D03*
Y481941D02*
D03*
D19*
X383000Y281457D02*
D03*
Y498543D02*
D03*
D20*
X163598Y593000D02*
D03*
Y603000D02*
D03*
X188402D02*
D03*
Y593000D02*
D03*
D21*
X203563Y602500D02*
D03*
X216437D02*
D03*
D22*
X10500Y603500D02*
D03*
X329500Y474000D02*
D03*
D23*
X10500Y593500D02*
D03*
X329500Y484000D02*
D03*
D24*
X19000Y630000D02*
D03*
X680000D02*
D03*
Y21693D02*
D03*
X20000D02*
D03*
X582886Y609394D02*
D03*
X515602D02*
D03*
X53717Y609527D02*
D03*
X121000D02*
D03*
X659000Y148300D02*
D03*
X469000Y135700D02*
D03*
X659000Y568300D02*
D03*
X469000Y555700D02*
D03*
X233000Y148300D02*
D03*
X43000Y135700D02*
D03*
X233000Y568300D02*
D03*
X43000Y555700D02*
D03*
X305283Y41213D02*
D03*
X238000D02*
D03*
D25*
X208283Y630681D02*
D03*
X315803D02*
D03*
X345803D02*
D03*
X238283D02*
D03*
X494000Y562000D02*
D03*
X534000Y142000D02*
D03*
X564000D02*
D03*
X594000D02*
D03*
X534000Y562000D02*
D03*
X594000D02*
D03*
X634000D02*
D03*
X68000D02*
D03*
X108000Y142000D02*
D03*
X138000D02*
D03*
X168000D02*
D03*
X108000Y562000D02*
D03*
X168000D02*
D03*
X208000D02*
D03*
D26*
X563988Y616500D02*
D03*
X534500D02*
D03*
X72614Y616634D02*
D03*
X102102D02*
D03*
X286386Y34106D02*
D03*
X256898D02*
D03*
D27*
X555158Y22000D02*
D03*
D28*
X574843D02*
D03*
D29*
X217500Y84500D02*
D03*
X636000Y36500D02*
D03*
X197000Y584000D02*
D03*
D30*
X569500Y85000D02*
D03*
X579500Y95000D02*
D03*
X559500D02*
D03*
X140000Y47000D02*
D03*
X150000Y57000D02*
D03*
X130000D02*
D03*
D31*
X634000Y142000D02*
D03*
X494000D02*
D03*
X208000D02*
D03*
X68000D02*
D03*
D32*
X668921Y172000D02*
D03*
X459079Y352000D02*
D03*
X668921D02*
D03*
X459079Y172000D02*
D03*
X668921Y532000D02*
D03*
X459079D02*
D03*
X242921Y172000D02*
D03*
X33079Y352000D02*
D03*
X242921D02*
D03*
X33079Y172000D02*
D03*
X242921Y532000D02*
D03*
X33079D02*
D03*
D33*
X636343Y617657D02*
D03*
X656343D02*
D03*
D34*
X430419Y36000D02*
D03*
X416500D02*
D03*
Y49919D02*
D03*
X430419D02*
D03*
X423460Y42960D02*
D03*
D35*
X362094Y293957D02*
D03*
M02*
