G04*
G04 #@! TF.GenerationSoftware,Altium Limited,Altium Designer,19.0.15 (446)*
G04*
G04 Layer_Color=65535*
%FSLAX25Y25*%
%MOIN*%
G70*
G01*
G75*
%ADD10C,0.00984*%
%ADD11C,0.00600*%
%ADD12C,0.01000*%
%ADD13C,0.00394*%
%ADD14C,0.00787*%
%ADD15C,0.00500*%
D10*
X543445Y22000D02*
G03*
X543445Y22000I-492J0D01*
G01*
X216929Y597933D02*
G03*
X216929Y597933I-492J0D01*
G01*
X383492Y513799D02*
G03*
X383492Y513799I-492J0D01*
G01*
X193421Y592980D02*
G03*
X193421Y592980I-492J0D01*
G01*
D11*
X583081Y88287D02*
G03*
X583081Y81241I374J-3523D01*
G01*
X583830Y81240D02*
G03*
X583830Y88288I-375J3524D01*
G01*
X559795Y89114D02*
G03*
X563752Y85158I3957J0D01*
G01*
X153581Y50287D02*
G03*
X153581Y43241I374J-3523D01*
G01*
X154330Y43240D02*
G03*
X154330Y50288I-375J3524D01*
G01*
X130295Y51114D02*
G03*
X134252Y47157I3957J0D01*
G01*
X583831Y81234D02*
Y88294D01*
X583081Y81235D02*
Y88293D01*
X559795Y89488D02*
X560602Y88307D01*
X559028D02*
X559795Y89488D01*
X154331Y43234D02*
Y50294D01*
X153581Y43235D02*
Y50293D01*
X130295Y51488D02*
X131102Y50307D01*
X129528D02*
X130295Y51488D01*
D12*
X459079Y344126D02*
G03*
X459079Y359874I0J7874D01*
G01*
Y524126D02*
G03*
X459079Y539874I0J7874D01*
G01*
X668921D02*
G03*
X668921Y524126I0J-7874D01*
G01*
Y359874D02*
G03*
X668921Y344126I0J-7874D01*
G01*
X459079Y164126D02*
G03*
X459079Y179874I0J7874D01*
G01*
X668921D02*
G03*
X668921Y164126I0J-7874D01*
G01*
X33079Y344126D02*
G03*
X33079Y359874I0J7874D01*
G01*
Y524126D02*
G03*
X33079Y539874I0J7874D01*
G01*
X242921D02*
G03*
X242921Y524126I0J-7874D01*
G01*
Y359874D02*
G03*
X242921Y344126I0J-7874D01*
G01*
X33079Y164126D02*
G03*
X33079Y179874I0J7874D01*
G01*
X242921D02*
G03*
X242921Y164126I0J-7874D01*
G01*
X208283Y636587D02*
Y639343D01*
Y641311D01*
Y619657D02*
Y624382D01*
Y619657D02*
X345685D01*
Y624382D01*
X208283Y641311D02*
X345685D01*
Y636980D02*
Y641311D01*
X238205Y636980D02*
Y641311D01*
Y619657D02*
Y624382D01*
X315764Y619657D02*
Y624382D01*
Y637374D02*
Y641311D01*
X444000Y120000D02*
Y163811D01*
Y180150D02*
Y295000D01*
Y309000D02*
Y343929D01*
Y359874D02*
Y524244D01*
Y540189D02*
Y580000D01*
X684000Y539953D02*
Y580000D01*
Y359953D02*
Y524126D01*
Y309000D02*
Y343732D01*
Y180150D02*
Y295000D01*
Y120000D02*
Y163811D01*
X668921D02*
X684000D01*
X668921Y180150D02*
X684000D01*
X668921Y343732D02*
X684000D01*
X668921Y359953D02*
X684000D01*
X668921Y524126D02*
X684000D01*
X668921Y539953D02*
X684000D01*
X447770Y540189D02*
X455309D01*
X444000Y524244D02*
X458291D01*
X444000Y359874D02*
X459079D01*
X447775Y344126D02*
X455314D01*
X444000Y180150D02*
X458803D01*
X444000Y163811D02*
X459079D01*
X444000Y580000D02*
X684000D01*
X444000Y120000D02*
X684000D01*
Y295000D02*
Y310071D01*
X444000Y295000D02*
Y309000D01*
X444005Y344126D02*
X447775D01*
X455314D02*
X459084D01*
X444000Y540189D02*
X447770D01*
X455309D02*
X459079D01*
X458803Y180150D02*
X459079Y179874D01*
X631106Y612500D02*
Y622776D01*
X638862D01*
X640791Y620846D01*
X661618Y612461D02*
Y622776D01*
X653941D02*
X661618D01*
X652110Y620945D02*
X653941Y622776D01*
X650280D02*
X652110Y620945D01*
X640791Y620846D02*
X642720Y622776D01*
X650280D01*
X631106Y612500D02*
X638744D01*
X640594Y614350D01*
X642445Y612500D01*
X650555D01*
X652209Y614154D01*
X653902Y612461D01*
X661618D01*
X18000Y120000D02*
Y163811D01*
Y180150D02*
Y295000D01*
Y309000D02*
Y343929D01*
Y359874D02*
Y524244D01*
Y540189D02*
Y580000D01*
X258000Y539953D02*
Y580000D01*
Y359953D02*
Y524126D01*
Y309000D02*
Y343732D01*
Y180150D02*
Y295000D01*
Y120000D02*
Y163811D01*
X242921D02*
X258000D01*
X242921Y180150D02*
X258000D01*
X242921Y343732D02*
X258000D01*
X242921Y359953D02*
X258000D01*
X242921Y524126D02*
X258000D01*
X242921Y539953D02*
X258000D01*
X21770Y540189D02*
X29309D01*
X18000Y524244D02*
X32291D01*
X18000Y359874D02*
X33079D01*
X21775Y344126D02*
X29314D01*
X18000Y180150D02*
X32803D01*
X18000Y163811D02*
X33079D01*
X18000Y580000D02*
X258000D01*
X18000Y120000D02*
X258000D01*
Y295000D02*
Y310071D01*
X18000Y295000D02*
Y309000D01*
X18005Y344126D02*
X21775D01*
X29314D02*
X33084D01*
X18000Y540189D02*
X21770D01*
X29309D02*
X33079D01*
X32803Y180150D02*
X33079Y179874D01*
X6000Y616498D02*
Y610500D01*
Y613499D01*
X9999D01*
Y616498D01*
Y610500D01*
X15997D02*
X11998D01*
X15997Y614499D01*
Y615498D01*
X14997Y616498D01*
X12998D01*
X11998Y615498D01*
X542950Y45550D02*
Y51548D01*
X545949D01*
X546949Y50548D01*
Y48549D01*
X545949Y47549D01*
X542950D01*
X548948Y45550D02*
X550947D01*
X549948D01*
Y51548D01*
X548948Y50548D01*
X203000Y613498D02*
Y607500D01*
X205999D01*
X206999Y608500D01*
Y612498D01*
X205999Y613498D01*
X203000D01*
X208998Y607500D02*
X210997D01*
X209998D01*
Y613498D01*
X208998Y612498D01*
X550400Y103652D02*
Y109650D01*
X553399D01*
X554399Y108650D01*
Y106651D01*
X553399Y105651D01*
X550400D01*
X552399D02*
X554399Y103652D01*
X556398Y108650D02*
X557398Y109650D01*
X559397D01*
X560397Y108650D01*
Y107651D01*
X559397Y106651D01*
X558397D01*
X559397D01*
X560397Y105651D01*
Y104652D01*
X559397Y103652D01*
X557398D01*
X556398Y104652D01*
X120900Y65700D02*
Y71698D01*
X123899D01*
X124899Y70698D01*
Y68699D01*
X123899Y67699D01*
X120900D01*
X122899D02*
X124899Y65700D01*
X130897Y71698D02*
X128897Y70698D01*
X126898Y68699D01*
Y66700D01*
X127898Y65700D01*
X129897D01*
X130897Y66700D01*
Y67699D01*
X129897Y68699D01*
X126898D01*
X18450Y589448D02*
Y584450D01*
X19450Y583450D01*
X21449D01*
X22449Y584450D01*
Y589448D01*
X28447Y583450D02*
X24448D01*
X28447Y587449D01*
Y588448D01*
X27447Y589448D01*
X25448D01*
X24448Y588448D01*
X444450Y589448D02*
Y584450D01*
X445450Y583450D01*
X447449D01*
X448449Y584450D01*
Y589448D01*
X450448Y583450D02*
X452447D01*
X451448D01*
Y589448D01*
X450448Y588448D01*
X196650Y594348D02*
Y593349D01*
X195650D01*
X197649D01*
X196650D01*
Y590350D01*
X197649Y589350D01*
X203647D02*
Y595348D01*
X200648Y592349D01*
X204647D01*
X217150Y94848D02*
Y93849D01*
X216150D01*
X218149D01*
X217150D01*
Y90850D01*
X218149Y89850D01*
X221148Y94848D02*
X222148Y95848D01*
X224147D01*
X225147Y94848D01*
Y93849D01*
X224147Y92849D01*
X223148D01*
X224147D01*
X225147Y91849D01*
Y90850D01*
X224147Y89850D01*
X222148D01*
X221148Y90850D01*
X635650Y46848D02*
Y45849D01*
X634650D01*
X636649D01*
X635650D01*
Y42850D01*
X636649Y41850D01*
X639648D02*
X641648D01*
X640648D01*
Y47848D01*
X639648Y46848D01*
X295400Y506900D02*
Y512898D01*
X298399D01*
X299399Y511898D01*
Y509899D01*
X298399Y508899D01*
X295400D01*
X297399D02*
X299399Y506900D01*
X301398Y512898D02*
X305397D01*
Y511898D01*
X301398Y507900D01*
Y506900D01*
X134750Y100250D02*
Y106248D01*
X137749D01*
X138749Y105248D01*
Y103249D01*
X137749Y102249D01*
X134750D01*
X136749D02*
X138749Y100250D01*
X144747Y106248D02*
X140748D01*
Y103249D01*
X142747Y104249D01*
X143747D01*
X144747Y103249D01*
Y101250D01*
X143747Y100250D01*
X141748D01*
X140748Y101250D01*
X167750Y98750D02*
Y104748D01*
X170749D01*
X171749Y103748D01*
Y101749D01*
X170749Y100749D01*
X167750D01*
X169749D02*
X171749Y98750D01*
X176747D02*
Y104748D01*
X173748Y101749D01*
X177747D01*
X610750Y108250D02*
Y114248D01*
X613749D01*
X614749Y113248D01*
Y111249D01*
X613749Y110249D01*
X610750D01*
X612749D02*
X614749Y108250D01*
X620747D02*
X616748D01*
X620747Y112249D01*
Y113248D01*
X619747Y114248D01*
X617748D01*
X616748Y113248D01*
X510205Y111248D02*
Y117246D01*
X513204D01*
X514204Y116246D01*
Y114247D01*
X513204Y113247D01*
X510205D01*
X512204D02*
X514204Y111248D01*
X516203D02*
X518202D01*
X517203D01*
Y117246D01*
X516203Y116246D01*
X161400Y615998D02*
Y610000D01*
Y611999D01*
X165399Y615998D01*
X162400Y612999D01*
X165399Y610000D01*
X167398D02*
X169397D01*
X168398D01*
Y615998D01*
X167398Y614998D01*
X387265Y93150D02*
X385266D01*
X386266D01*
Y88152D01*
X385266Y87152D01*
X384266D01*
X383267Y88152D01*
X389265Y87152D02*
X391264D01*
X390265D01*
Y93150D01*
X389265Y92150D01*
X325100Y498398D02*
Y492400D01*
Y495399D01*
X329099D01*
Y498398D01*
Y492400D01*
X331098D02*
X333097D01*
X332098D01*
Y498398D01*
X331098Y497398D01*
X195499Y643498D02*
X191500D01*
Y640499D01*
X193499D01*
X191500D01*
Y637500D01*
X201497D02*
X197498D01*
X201497Y641499D01*
Y642498D01*
X200497Y643498D01*
X198498D01*
X197498Y642498D01*
X635599Y632298D02*
X631600D01*
Y629299D01*
X633599D01*
X631600D01*
Y626300D01*
X637598D02*
X639597D01*
X638598D01*
Y632298D01*
X637598Y631298D01*
X31999Y647238D02*
X30999Y648238D01*
X29000D01*
X28000Y647238D01*
Y643240D01*
X29000Y642240D01*
X30999D01*
X31999Y643240D01*
X34998Y642240D02*
X36997D01*
X37997Y643240D01*
Y645239D01*
X36997Y646239D01*
X34998D01*
X33998Y645239D01*
Y643240D01*
X34998Y642240D01*
X39996D02*
Y646239D01*
X42995D01*
X43995Y645239D01*
Y642240D01*
X45994Y647238D02*
X46994Y648238D01*
X48993D01*
X49993Y647238D01*
Y646239D01*
X48993Y645239D01*
X47993D01*
X48993D01*
X49993Y644240D01*
Y643240D01*
X48993Y642240D01*
X46994D01*
X45994Y643240D01*
X234299Y64898D02*
X233299Y65898D01*
X231300D01*
X230300Y64898D01*
Y60900D01*
X231300Y59900D01*
X233299D01*
X234299Y60900D01*
X237298Y59900D02*
X239297D01*
X240297Y60900D01*
Y62899D01*
X239297Y63899D01*
X237298D01*
X236298Y62899D01*
Y60900D01*
X237298Y59900D01*
X242296D02*
Y63899D01*
X245295D01*
X246295Y62899D01*
Y59900D01*
X252293D02*
X248294D01*
X252293Y63899D01*
Y64898D01*
X251293Y65898D01*
X249294D01*
X248294Y64898D01*
X491999Y643998D02*
X490999Y644998D01*
X489000D01*
X488000Y643998D01*
Y640000D01*
X489000Y639000D01*
X490999D01*
X491999Y640000D01*
X494998Y639000D02*
X496997D01*
X497997Y640000D01*
Y641999D01*
X496997Y642999D01*
X494998D01*
X493998Y641999D01*
Y640000D01*
X494998Y639000D01*
X499996D02*
Y642999D01*
X502995D01*
X503995Y641999D01*
Y639000D01*
X505994D02*
X507994D01*
X506994D01*
Y644998D01*
X505994Y643998D01*
X357700Y523798D02*
Y517800D01*
X360699D01*
X361699Y518800D01*
Y519799D01*
X360699Y520799D01*
X357700D01*
X360699D01*
X361699Y521799D01*
Y522798D01*
X360699Y523798D01*
X357700D01*
X363698D02*
X367697D01*
X365697D01*
Y517800D01*
X369696D02*
X371695D01*
X370696D01*
Y523798D01*
X369696Y522798D01*
D13*
X397013Y16513D02*
G03*
X449907Y69407I26447J26447D01*
G01*
D02*
G03*
X397013Y16513I-26447J-26447D01*
G01*
D14*
X5500Y588500D02*
Y608500D01*
Y588500D02*
X15500D01*
Y608500D01*
X5500D02*
X15500D01*
X507335Y598390D02*
X528594D01*
X569933D02*
X591193D01*
X569933Y594059D02*
Y598390D01*
X528594Y594059D02*
X569933D01*
X528594D02*
Y598390D01*
X507335Y634610D02*
X517571Y644846D01*
X507335Y598390D02*
Y634610D01*
X591193Y598390D02*
Y634217D01*
X517571Y644846D02*
X580563D01*
X584106Y641303D01*
X588831Y636579D02*
X591193Y634217D01*
X584106Y641303D02*
X588831Y636579D01*
X545314Y42079D02*
X584685D01*
Y347D02*
Y42079D01*
X545314Y347D02*
X584685D01*
X545314D02*
Y42079D01*
X206929Y599350D02*
Y605650D01*
X213071D01*
X206929Y599350D02*
X213071D01*
Y605650D01*
X510583Y92579D02*
Y102421D01*
X520622Y92579D02*
Y102421D01*
X122220Y641437D02*
X126945Y636713D01*
X129307Y634350D01*
X118677Y644980D02*
X122220Y641437D01*
X55685Y644980D02*
X118677D01*
X129307Y598524D02*
Y634350D01*
X45449Y598524D02*
Y634744D01*
X55685Y644980D01*
X66709Y594193D02*
Y598524D01*
Y594193D02*
X108047D01*
Y598524D01*
X129307D01*
X45449D02*
X66709D01*
X621520Y87579D02*
Y97421D01*
X611480Y87579D02*
Y97421D01*
X232055Y14028D02*
X236780Y9303D01*
X229693Y16390D02*
X232055Y14028D01*
X236780Y9303D02*
X240323Y5760D01*
X303315D01*
X229693Y16390D02*
Y52217D01*
X313551Y15996D02*
Y52217D01*
X303315Y5760D02*
X313551Y15996D01*
X292291Y52217D02*
Y56547D01*
X250953D02*
X292291D01*
X250953Y52217D02*
Y56547D01*
X229693Y52217D02*
X250953D01*
X292291D02*
X313551D01*
X178520Y78079D02*
Y87921D01*
X168480Y78079D02*
Y87921D01*
X145520Y79579D02*
Y89421D01*
X135480Y79579D02*
Y89421D01*
X305921Y486079D02*
Y495921D01*
X296079Y486079D02*
Y495921D01*
X324500Y469000D02*
X334500D01*
X324500D02*
Y489000D01*
X334500D01*
Y469000D02*
Y489000D01*
X358000Y478583D02*
X408000D01*
X358000Y301417D02*
Y478583D01*
Y301417D02*
X408000D01*
Y478583D01*
X166846Y589831D02*
X185154D01*
Y606051D02*
Y606169D01*
Y596051D02*
Y599949D01*
Y589831D02*
Y589949D01*
X166846Y606169D02*
X185154D01*
X166846Y606051D02*
Y606169D01*
Y596051D02*
Y599949D01*
Y589831D02*
Y589949D01*
D15*
X588555Y80039D02*
Y99724D01*
X550366Y80039D02*
X588555D01*
X550366D02*
Y99724D01*
X588555D01*
X159055Y42039D02*
Y61724D01*
X120866Y42039D02*
X159055D01*
X120866D02*
Y61724D01*
X159055D01*
X564869Y90459D02*
X565107Y90578D01*
X565345Y90816D01*
X565464Y91054D01*
Y91530D01*
X565345Y91768D01*
X565107Y92006D01*
X564869Y92125D01*
X564512Y92244D01*
X563917D01*
X563560Y92125D01*
X563322Y92006D01*
X563084Y91768D01*
X562965Y91530D01*
Y91054D01*
X563084Y90816D01*
X563322Y90578D01*
X563560Y90459D01*
X565464Y89757D02*
X562965Y89161D01*
X565464Y88566D02*
X562965Y89161D01*
X565464Y88566D02*
X562965Y87971D01*
X565464Y87376D02*
X562965Y87971D01*
X135369Y52459D02*
X135607Y52578D01*
X135845Y52816D01*
X135964Y53054D01*
Y53530D01*
X135845Y53768D01*
X135607Y54006D01*
X135369Y54125D01*
X135012Y54244D01*
X134417D01*
X134060Y54125D01*
X133822Y54006D01*
X133584Y53768D01*
X133465Y53530D01*
Y53054D01*
X133584Y52816D01*
X133822Y52578D01*
X134060Y52459D01*
X135964Y51757D02*
X133465Y51161D01*
X135964Y50566D02*
X133465Y51161D01*
X135964Y50566D02*
X133465Y49971D01*
X135964Y49376D02*
X133465Y49971D01*
M02*
