%TF.GenerationSoftware,Altium Limited,Altium Designer,19.1.8 (144)*%
G04 Layer_Color=255*
%FSLAX25Y25*%
%MOIN*%
%TF.FileFunction,Pads,Top*%
%TF.Part,Single*%
G01*
G75*
%TA.AperFunction,SMDPad,CuDef*%
%ADD10R,0.07316X0.05142*%
%ADD11R,0.12008X0.05512*%
%ADD12R,0.05512X0.12008*%
%ADD13R,0.04724X0.03150*%
%ADD14R,0.05512X0.08268*%
%ADD15R,0.05142X0.07316*%
%TA.AperFunction,ComponentPad*%
%ADD18C,0.23622*%
%ADD19C,0.35433*%
%ADD20C,0.13307*%
%ADD21C,0.03937*%
%ADD22R,0.08071X0.08071*%
%ADD23C,0.08071*%
%ADD24C,0.07087*%
%ADD25R,0.05906X0.05906*%
%ADD26C,0.05906*%
%ADD27C,0.09646*%
%ADD28R,0.09646X0.09646*%
%ADD29C,0.07874*%
%ADD30R,0.09646X0.09646*%
%ADD31O,0.11811X0.27559*%
%ADD32C,0.07500*%
D10*
X9000Y509893D02*
D03*
Y522107D02*
D03*
D11*
X62017Y58452D02*
D03*
Y76956D02*
D03*
X539824Y56748D02*
D03*
Y75252D02*
D03*
X601447Y57057D02*
D03*
Y75561D02*
D03*
D12*
X129039Y72625D02*
D03*
X147543D02*
D03*
D13*
X421402Y556693D02*
D03*
Y566693D02*
D03*
X396598D02*
D03*
Y556693D02*
D03*
X192902Y567500D02*
D03*
Y557500D02*
D03*
X168098Y567500D02*
D03*
Y557500D02*
D03*
D14*
X277339Y43866D02*
D03*
X294661D02*
D03*
X434339Y30586D02*
D03*
X451661D02*
D03*
D15*
X374607Y570000D02*
D03*
X362393D02*
D03*
D18*
X112500Y104000D02*
D03*
X142500D02*
D03*
X172500D02*
D03*
X472421D02*
D03*
X502421D02*
D03*
X532421D02*
D03*
X572421Y524000D02*
D03*
X532421D02*
D03*
X472421D02*
D03*
X432421D02*
D03*
X212500D02*
D03*
X172500D02*
D03*
X112500D02*
D03*
X72500D02*
D03*
D19*
X72500Y104000D02*
D03*
X212500D02*
D03*
X432421D02*
D03*
X572421D02*
D03*
D20*
X37579Y134000D02*
D03*
Y314000D02*
D03*
Y494000D02*
D03*
X247421Y314000D02*
D03*
X397500D02*
D03*
X247421Y134000D02*
D03*
X397500D02*
D03*
X607342D02*
D03*
Y314000D02*
D03*
Y494000D02*
D03*
X397500D02*
D03*
X247421D02*
D03*
D21*
X258500Y62000D02*
D03*
X332000Y101936D02*
D03*
X416032Y67181D02*
D03*
X494000Y21872D02*
D03*
X555500Y571314D02*
D03*
X596343Y608937D02*
D03*
X286500Y589000D02*
D03*
X182468Y580500D02*
D03*
X154000Y583000D02*
D03*
D22*
X554727Y27200D02*
D03*
D23*
X574412Y27200D02*
D03*
D24*
X353581Y32324D02*
D03*
X367500D02*
D03*
Y46244D02*
D03*
X360540Y39284D02*
D03*
X353581Y46244D02*
D03*
D25*
X16500Y567500D02*
D03*
X395000Y609500D02*
D03*
D26*
X26500Y567500D02*
D03*
X385000Y609500D02*
D03*
D27*
X276307Y123484D02*
D03*
X289693D02*
D03*
X276307Y176516D02*
D03*
X462484Y55020D02*
D03*
Y68406D02*
D03*
X515516D02*
D03*
D28*
X289693Y176516D02*
D03*
D29*
X596343Y585658D02*
D03*
X576342D02*
D03*
X258343Y597157D02*
D03*
X238342D02*
D03*
D30*
X515516Y55020D02*
D03*
D31*
X152114Y32394D02*
D03*
X181602D02*
D03*
X504259Y585264D02*
D03*
X474771D02*
D03*
X106859Y585240D02*
D03*
X77371D02*
D03*
D32*
X98500Y61059D02*
D03*
X108500Y71059D02*
D03*
X88500D02*
D03*
X562201Y74668D02*
D03*
X572201Y64668D02*
D03*
X582201Y74668D02*
D03*
%TF.MD5,7d37728b097a5ce435a021465a4d212c*%
M02*
