M48
;Layer_Color=9474304
;FILE_FORMAT=2:5
INCH,TZ
;TYPE=PLATED
T1F00S00C0.02756
T2F00S00C0.03500
T3F00S00C0.03543
T4F00S00C0.04724
T7F00S00C0.06102
T8F00S00C0.06299
T9F00S00C0.06400
T10F00S00C0.15354
T11F00S00C0.18701
T12F00S00C0.23622
T13F00S00C0.27008
;TYPE=NON_PLATED
T14F00S00C0.12205
%
T01
X494000Y21872
X416032Y67181
X332000Y101936
X258500Y62000
X182468Y580500
X154000Y583000
X286500Y589000
X555500Y571314
X596343Y608937
T02
X562201Y74668
X582201
X572201Y64668
X108500Y71059
X88500
X98500Y61059
T03
X16500Y567500
X26500
X238342Y597157
X258343
X385000Y609500
X395000
X576342Y585658
X596343
T04
X353581Y32324
Y46244
X367500
X367500Y46244
Y32324
X360540Y39284
T07
X554727Y27200
X574412
T08
X462484Y55020
X515516
Y68406
X462484
X289693Y123484
X276307
Y176516
X289693
T09
X597421Y110300
X407421Y97700
X237500Y110300
X47500Y97700
X407421Y517700
X47500
X237500Y530300
X597421
T10
X607342Y134000
X397500
X247421
X37579
Y314000
X247421
X397500
X607342
Y494000
X397500
X247421
X37579
T11
X532421Y104000
X502421
X472421
X172500
X142500
X112500
X532421Y524000
X572421
X472421
X432421
X212500
X172500
X112500
X72500
T12
X25500Y28780
X623000
X25500Y594500
X623000
T13
X572421Y104000
X432421
X212500
X72500
T14
X133217Y25287
X200500
X125757Y592346
X58473
X455874Y592370
X523157
M30
