%TF.GenerationSoftware,Altium Limited,Altium Designer,19.1.8 (144)*%
G04 Layer_Physical_Order=2*
G04 Layer_Color=16711680*
%FSLAX25Y25*%
%MOIN*%
%TF.FileFunction,Copper,L2,Bot,Signal*%
%TF.Part,Single*%
G01*
G75*
%TA.AperFunction,Conductor*%
%ADD16C,0.10000*%
%TA.AperFunction,ComponentPad*%
%ADD18C,0.23622*%
%ADD19C,0.35433*%
%ADD20C,0.13307*%
%ADD21C,0.03937*%
%ADD22R,0.08071X0.08071*%
%ADD23C,0.08071*%
%ADD24C,0.07087*%
%ADD25R,0.05906X0.05906*%
%ADD26C,0.05906*%
%ADD27C,0.09646*%
%ADD28R,0.09646X0.09646*%
%ADD29C,0.07874*%
%ADD30R,0.09646X0.09646*%
%ADD31O,0.11811X0.27559*%
%ADD32C,0.07500*%
%TA.AperFunction,ViaPad*%
%ADD33C,0.07087*%
G36*
X644500Y3500D02*
X5000D01*
Y252500D01*
X644500D01*
Y3500D01*
D02*
G37*
%LPC*%
G36*
X295516Y182339D02*
X283870D01*
Y170693D01*
X295516D01*
Y182339D01*
D02*
G37*
G36*
X276307Y182367D02*
X275166Y182254D01*
X274068Y181921D01*
X273056Y181381D01*
X272170Y180653D01*
X271442Y179766D01*
X270901Y178755D01*
X270568Y177657D01*
X270456Y176516D01*
X270568Y175374D01*
X270901Y174277D01*
X271442Y173265D01*
X272170Y172379D01*
X273056Y171651D01*
X274068Y171110D01*
X275166Y170777D01*
X276307Y170665D01*
X277449Y170777D01*
X278546Y171110D01*
X279558Y171651D01*
X280444Y172379D01*
X281172Y173265D01*
X281713Y174277D01*
X282046Y175374D01*
X282158Y176516D01*
X282046Y177657D01*
X281713Y178755D01*
X281172Y179766D01*
X280444Y180653D01*
X279558Y181381D01*
X278546Y181921D01*
X277449Y182254D01*
X276307Y182367D01*
D02*
G37*
G36*
X607342Y142719D02*
X605641Y142552D01*
X604006Y142055D01*
X602498Y141250D01*
X601177Y140165D01*
X600093Y138844D01*
X599287Y137337D01*
X598791Y135701D01*
X598623Y134000D01*
X598791Y132299D01*
X599287Y130663D01*
X600093Y129156D01*
X601177Y127835D01*
X602498Y126750D01*
X604006Y125945D01*
X605641Y125448D01*
X607342Y125281D01*
X609044Y125448D01*
X610679Y125945D01*
X612187Y126750D01*
X613508Y127835D01*
X614592Y129156D01*
X615398Y130663D01*
X615894Y132299D01*
X616062Y134000D01*
X615894Y135701D01*
X615398Y137337D01*
X614592Y138844D01*
X613508Y140165D01*
X612187Y141250D01*
X610679Y142055D01*
X609044Y142552D01*
X607342Y142719D01*
D02*
G37*
G36*
X397500D02*
X395799Y142552D01*
X394163Y142055D01*
X392656Y141250D01*
X391335Y140165D01*
X390250Y138844D01*
X389444Y137337D01*
X388948Y135701D01*
X388781Y134000D01*
X388948Y132299D01*
X389444Y130663D01*
X390250Y129156D01*
X391335Y127835D01*
X392656Y126750D01*
X394163Y125945D01*
X395799Y125448D01*
X397500Y125281D01*
X399201Y125448D01*
X400837Y125945D01*
X402344Y126750D01*
X403665Y127835D01*
X404750Y129156D01*
X405555Y130663D01*
X406051Y132299D01*
X406219Y134000D01*
X406051Y135701D01*
X405555Y137337D01*
X404750Y138844D01*
X403665Y140165D01*
X402344Y141250D01*
X400837Y142055D01*
X399201Y142552D01*
X397500Y142719D01*
D02*
G37*
G36*
X247421D02*
X245720Y142552D01*
X244085Y142055D01*
X242577Y141250D01*
X241256Y140165D01*
X240172Y138844D01*
X239366Y137337D01*
X238870Y135701D01*
X238702Y134000D01*
X238870Y132299D01*
X239366Y130663D01*
X240172Y129156D01*
X241256Y127835D01*
X242577Y126750D01*
X244085Y125945D01*
X245720Y125448D01*
X247421Y125281D01*
X249122Y125448D01*
X250758Y125945D01*
X252265Y126750D01*
X253587Y127835D01*
X254671Y129156D01*
X255477Y130663D01*
X255973Y132299D01*
X256140Y134000D01*
X255973Y135701D01*
X255477Y137337D01*
X254671Y138844D01*
X253587Y140165D01*
X252265Y141250D01*
X250758Y142055D01*
X249122Y142552D01*
X247421Y142719D01*
D02*
G37*
G36*
X37579D02*
X35878Y142552D01*
X34242Y142055D01*
X32735Y141250D01*
X31413Y140165D01*
X30329Y138844D01*
X29523Y137337D01*
X29027Y135701D01*
X28860Y134000D01*
X29027Y132299D01*
X29523Y130663D01*
X30329Y129156D01*
X31413Y127835D01*
X32735Y126750D01*
X34242Y125945D01*
X35878Y125448D01*
X37579Y125281D01*
X39280Y125448D01*
X40915Y125945D01*
X42423Y126750D01*
X43744Y127835D01*
X44828Y129156D01*
X45634Y130663D01*
X46130Y132299D01*
X46298Y134000D01*
X46130Y135701D01*
X45634Y137337D01*
X44828Y138844D01*
X43744Y140165D01*
X42423Y141250D01*
X40915Y142055D01*
X39280Y142552D01*
X37579Y142719D01*
D02*
G37*
G36*
X289693Y129335D02*
X288551Y129223D01*
X287454Y128890D01*
X286442Y128349D01*
X285556Y127621D01*
X284828Y126735D01*
X284287Y125723D01*
X283954Y124626D01*
X283842Y123484D01*
X283954Y122343D01*
X284287Y121245D01*
X284828Y120234D01*
X285556Y119347D01*
X286442Y118619D01*
X287454Y118079D01*
X288551Y117746D01*
X289693Y117633D01*
X290834Y117746D01*
X291932Y118079D01*
X292944Y118619D01*
X293830Y119347D01*
X294558Y120234D01*
X295098Y121245D01*
X295431Y122343D01*
X295544Y123484D01*
X295431Y124626D01*
X295098Y125723D01*
X294558Y126735D01*
X293830Y127621D01*
X292944Y128349D01*
X291932Y128890D01*
X290834Y129223D01*
X289693Y129335D01*
D02*
G37*
G36*
X276307D02*
X275166Y129223D01*
X274068Y128890D01*
X273056Y128349D01*
X272170Y127621D01*
X271442Y126735D01*
X270901Y125723D01*
X270568Y124626D01*
X270456Y123484D01*
X270568Y122343D01*
X270901Y121245D01*
X271442Y120234D01*
X272170Y119347D01*
X273056Y118619D01*
X274068Y118079D01*
X275166Y117746D01*
X276307Y117633D01*
X277449Y117746D01*
X278546Y118079D01*
X279558Y118619D01*
X280444Y119347D01*
X281172Y120234D01*
X281713Y121245D01*
X282046Y122343D01*
X282158Y123484D01*
X282046Y124626D01*
X281713Y125723D01*
X281172Y126735D01*
X280444Y127621D01*
X279558Y128349D01*
X278546Y128890D01*
X277449Y129223D01*
X276307Y129335D01*
D02*
G37*
G36*
X597421Y114536D02*
X596325Y114392D01*
X595303Y113969D01*
X594426Y113295D01*
X593752Y112418D01*
X593329Y111396D01*
X593185Y110300D01*
X593329Y109204D01*
X593752Y108182D01*
X594426Y107305D01*
X595303Y106631D01*
X596325Y106208D01*
X597421Y106064D01*
X598518Y106208D01*
X599539Y106631D01*
X600417Y107305D01*
X601090Y108182D01*
X601513Y109204D01*
X601657Y110300D01*
X601513Y111396D01*
X601090Y112418D01*
X600417Y113295D01*
X599539Y113969D01*
X598518Y114392D01*
X597421Y114536D01*
D02*
G37*
G36*
X237500D02*
X236404Y114392D01*
X235382Y113969D01*
X234505Y113295D01*
X233831Y112418D01*
X233408Y111396D01*
X233264Y110300D01*
X233408Y109204D01*
X233831Y108182D01*
X234505Y107305D01*
X235382Y106631D01*
X236404Y106208D01*
X237500Y106064D01*
X238596Y106208D01*
X239618Y106631D01*
X240495Y107305D01*
X241169Y108182D01*
X241592Y109204D01*
X241736Y110300D01*
X241592Y111396D01*
X241169Y112418D01*
X240495Y113295D01*
X239618Y113969D01*
X238596Y114392D01*
X237500Y114536D01*
D02*
G37*
G36*
X472921Y116811D02*
Y104500D01*
X485232D01*
X485114Y106010D01*
X484643Y107971D01*
X483871Y109834D01*
X482818Y111553D01*
X481508Y113087D01*
X479975Y114396D01*
X478255Y115450D01*
X476392Y116222D01*
X474432Y116692D01*
X472921Y116811D01*
D02*
G37*
G36*
X471921D02*
X470411Y116692D01*
X468450Y116222D01*
X466587Y115450D01*
X464868Y114396D01*
X463334Y113087D01*
X462025Y111553D01*
X460971Y109834D01*
X460199Y107971D01*
X459729Y106010D01*
X459610Y104500D01*
X471921D01*
Y116811D01*
D02*
G37*
G36*
X432921Y122724D02*
Y104500D01*
X451145D01*
X451017Y106448D01*
X450539Y108855D01*
X449750Y111178D01*
X448665Y113378D01*
X447302Y115418D01*
X445684Y117263D01*
X443840Y118881D01*
X441799Y120244D01*
X439599Y121329D01*
X437276Y122118D01*
X434869Y122596D01*
X432921Y122724D01*
D02*
G37*
G36*
X431921D02*
X429973Y122596D01*
X427567Y122118D01*
X425243Y121329D01*
X423043Y120244D01*
X421003Y118881D01*
X419158Y117263D01*
X417541Y115418D01*
X416177Y113378D01*
X415092Y111178D01*
X414304Y108855D01*
X413825Y106448D01*
X413697Y104500D01*
X431921D01*
Y122724D01*
D02*
G37*
G36*
X113000Y116811D02*
Y104500D01*
X125311D01*
X125192Y106010D01*
X124722Y107971D01*
X123950Y109834D01*
X122896Y111553D01*
X121587Y113087D01*
X120053Y114396D01*
X118334Y115450D01*
X116471Y116222D01*
X114510Y116692D01*
X113000Y116811D01*
D02*
G37*
G36*
X112000D02*
X110490Y116692D01*
X108529Y116222D01*
X106666Y115450D01*
X104947Y114396D01*
X103413Y113087D01*
X102104Y111553D01*
X101050Y109834D01*
X100278Y107971D01*
X99808Y106010D01*
X99689Y104500D01*
X112000D01*
Y116811D01*
D02*
G37*
G36*
X73000Y122724D02*
Y104500D01*
X91224D01*
X91096Y106448D01*
X90618Y108855D01*
X89829Y111178D01*
X88744Y113378D01*
X87381Y115418D01*
X85763Y117263D01*
X83918Y118881D01*
X81878Y120244D01*
X79678Y121329D01*
X77355Y122118D01*
X74948Y122596D01*
X73000Y122724D01*
D02*
G37*
G36*
X72000D02*
X70052Y122596D01*
X67645Y122118D01*
X65322Y121329D01*
X63122Y120244D01*
X61082Y118881D01*
X59237Y117263D01*
X57619Y115418D01*
X56256Y113378D01*
X55171Y111178D01*
X54382Y108855D01*
X53904Y106448D01*
X53776Y104500D01*
X72000D01*
Y122724D01*
D02*
G37*
G36*
X332000Y104930D02*
X331225Y104828D01*
X330503Y104529D01*
X329883Y104053D01*
X329407Y103433D01*
X329108Y102711D01*
X329006Y101936D01*
X329108Y101161D01*
X329407Y100439D01*
X329883Y99819D01*
X330503Y99343D01*
X331225Y99044D01*
X332000Y98942D01*
X332775Y99044D01*
X333497Y99343D01*
X334117Y99819D01*
X334593Y100439D01*
X334892Y101161D01*
X334994Y101936D01*
X334892Y102711D01*
X334593Y103433D01*
X334117Y104053D01*
X333497Y104529D01*
X332775Y104828D01*
X332000Y104930D01*
D02*
G37*
G36*
X407421Y101936D02*
X406325Y101792D01*
X405303Y101369D01*
X404426Y100696D01*
X403753Y99818D01*
X403329Y98796D01*
X403185Y97700D01*
X403329Y96604D01*
X403753Y95582D01*
X404426Y94705D01*
X405303Y94031D01*
X406325Y93608D01*
X407421Y93464D01*
X408518Y93608D01*
X409539Y94031D01*
X410417Y94705D01*
X411090Y95582D01*
X411513Y96604D01*
X411657Y97700D01*
X411513Y98796D01*
X411090Y99818D01*
X410417Y100696D01*
X409539Y101369D01*
X408518Y101792D01*
X407421Y101936D01*
D02*
G37*
G36*
X47500D02*
X46404Y101792D01*
X45382Y101369D01*
X44504Y100696D01*
X43831Y99818D01*
X43408Y98796D01*
X43264Y97700D01*
X43408Y96604D01*
X43831Y95582D01*
X44504Y94705D01*
X45382Y94031D01*
X46404Y93608D01*
X47500Y93464D01*
X48596Y93608D01*
X49618Y94031D01*
X50495Y94705D01*
X51169Y95582D01*
X51592Y96604D01*
X51736Y97700D01*
X51592Y98796D01*
X51169Y99818D01*
X50495Y100696D01*
X49618Y101369D01*
X48596Y101792D01*
X47500Y101936D01*
D02*
G37*
G36*
X485232Y103500D02*
X472921D01*
Y91189D01*
X474432Y91308D01*
X476392Y91778D01*
X478255Y92550D01*
X479975Y93604D01*
X481508Y94913D01*
X482818Y96447D01*
X483871Y98166D01*
X484643Y100029D01*
X485114Y101990D01*
X485232Y103500D01*
D02*
G37*
G36*
X471921D02*
X459610D01*
X459729Y101990D01*
X460199Y100029D01*
X460971Y98166D01*
X462025Y96447D01*
X463334Y94913D01*
X464868Y93604D01*
X466587Y92550D01*
X468450Y91778D01*
X470411Y91308D01*
X471921Y91189D01*
Y103500D01*
D02*
G37*
G36*
X125311D02*
X113000D01*
Y91189D01*
X114510Y91308D01*
X116471Y91778D01*
X118334Y92550D01*
X120053Y93604D01*
X121587Y94913D01*
X122896Y96447D01*
X123950Y98166D01*
X124722Y100029D01*
X125192Y101990D01*
X125311Y103500D01*
D02*
G37*
G36*
X112000D02*
X99689D01*
X99808Y101990D01*
X100278Y100029D01*
X101050Y98166D01*
X102104Y96447D01*
X103413Y94913D01*
X104947Y93604D01*
X106666Y92550D01*
X108529Y91778D01*
X110490Y91308D01*
X112000Y91189D01*
Y103500D01*
D02*
G37*
G36*
X532421Y116851D02*
X530411Y116692D01*
X528450Y116222D01*
X526587Y115450D01*
X524868Y114396D01*
X523334Y113087D01*
X522025Y111553D01*
X520971Y109834D01*
X520199Y107971D01*
X519729Y106010D01*
X519571Y104000D01*
X519729Y101990D01*
X520199Y100029D01*
X520971Y98166D01*
X522025Y96447D01*
X523334Y94913D01*
X524868Y93604D01*
X526587Y92550D01*
X528450Y91778D01*
X530411Y91308D01*
X532421Y91149D01*
X534432Y91308D01*
X536392Y91778D01*
X538255Y92550D01*
X539975Y93604D01*
X541508Y94913D01*
X542818Y96447D01*
X543871Y98166D01*
X544643Y100029D01*
X545114Y101990D01*
X545272Y104000D01*
X545114Y106010D01*
X544643Y107971D01*
X543871Y109834D01*
X542818Y111553D01*
X541508Y113087D01*
X539975Y114396D01*
X538255Y115450D01*
X536392Y116222D01*
X534432Y116692D01*
X532421Y116851D01*
D02*
G37*
G36*
X502421D02*
X500411Y116692D01*
X498450Y116222D01*
X496587Y115450D01*
X494868Y114396D01*
X493334Y113087D01*
X492025Y111553D01*
X490971Y109834D01*
X490200Y107971D01*
X489729Y106010D01*
X489571Y104000D01*
X489729Y101990D01*
X490200Y100029D01*
X490971Y98166D01*
X492025Y96447D01*
X493334Y94913D01*
X494868Y93604D01*
X496587Y92550D01*
X498450Y91778D01*
X500411Y91308D01*
X502421Y91149D01*
X504431Y91308D01*
X506392Y91778D01*
X508255Y92550D01*
X509975Y93604D01*
X511508Y94913D01*
X512818Y96447D01*
X513871Y98166D01*
X514643Y100029D01*
X515114Y101990D01*
X515272Y104000D01*
X515114Y106010D01*
X514643Y107971D01*
X513871Y109834D01*
X512818Y111553D01*
X511508Y113087D01*
X509975Y114396D01*
X508255Y115450D01*
X506392Y116222D01*
X504431Y116692D01*
X502421Y116851D01*
D02*
G37*
G36*
X172500D02*
X170490Y116692D01*
X168529Y116222D01*
X166666Y115450D01*
X164947Y114396D01*
X163413Y113087D01*
X162104Y111553D01*
X161050Y109834D01*
X160278Y107971D01*
X159808Y106010D01*
X159649Y104000D01*
X159808Y101990D01*
X160278Y100029D01*
X161050Y98166D01*
X162104Y96447D01*
X163413Y94913D01*
X164947Y93604D01*
X166666Y92550D01*
X168529Y91778D01*
X170490Y91308D01*
X172500Y91149D01*
X174510Y91308D01*
X176471Y91778D01*
X178334Y92550D01*
X180053Y93604D01*
X181587Y94913D01*
X182896Y96447D01*
X183950Y98166D01*
X184722Y100029D01*
X185192Y101990D01*
X185351Y104000D01*
X185192Y106010D01*
X184722Y107971D01*
X183950Y109834D01*
X182896Y111553D01*
X181587Y113087D01*
X180053Y114396D01*
X178334Y115450D01*
X176471Y116222D01*
X174510Y116692D01*
X172500Y116851D01*
D02*
G37*
G36*
X142500D02*
X140490Y116692D01*
X138529Y116222D01*
X136666Y115450D01*
X134947Y114396D01*
X133413Y113087D01*
X132104Y111553D01*
X131050Y109834D01*
X130278Y107971D01*
X129808Y106010D01*
X129649Y104000D01*
X129808Y101990D01*
X130278Y100029D01*
X131050Y98166D01*
X132104Y96447D01*
X133413Y94913D01*
X134947Y93604D01*
X136666Y92550D01*
X138529Y91778D01*
X140490Y91308D01*
X142500Y91149D01*
X144510Y91308D01*
X146471Y91778D01*
X148334Y92550D01*
X150053Y93604D01*
X151587Y94913D01*
X152896Y96447D01*
X153950Y98166D01*
X154722Y100029D01*
X155192Y101990D01*
X155351Y104000D01*
X155192Y106010D01*
X154722Y107971D01*
X153950Y109834D01*
X152896Y111553D01*
X151587Y113087D01*
X150053Y114396D01*
X148334Y115450D01*
X146471Y116222D01*
X144510Y116692D01*
X142500Y116851D01*
D02*
G37*
G36*
X451145Y103500D02*
X432921D01*
Y85276D01*
X434869Y85404D01*
X437276Y85882D01*
X439599Y86671D01*
X441799Y87756D01*
X443840Y89119D01*
X445684Y90737D01*
X447302Y92582D01*
X448665Y94622D01*
X449750Y96822D01*
X450539Y99145D01*
X451017Y101552D01*
X451145Y103500D01*
D02*
G37*
G36*
X431921D02*
X413697D01*
X413825Y101552D01*
X414304Y99145D01*
X415092Y96822D01*
X416177Y94622D01*
X417541Y92582D01*
X419158Y90737D01*
X421003Y89119D01*
X423043Y87756D01*
X425243Y86671D01*
X427567Y85882D01*
X429973Y85404D01*
X431921Y85276D01*
Y103500D01*
D02*
G37*
G36*
X91224D02*
X73000D01*
Y85276D01*
X74948Y85404D01*
X77355Y85882D01*
X79678Y86671D01*
X81878Y87756D01*
X83918Y89119D01*
X85763Y90737D01*
X87381Y92582D01*
X88744Y94622D01*
X89829Y96822D01*
X90618Y99145D01*
X91096Y101552D01*
X91224Y103500D01*
D02*
G37*
G36*
X72000D02*
X53776D01*
X53904Y101552D01*
X54382Y99145D01*
X55171Y96822D01*
X56256Y94622D01*
X57619Y92582D01*
X59237Y90737D01*
X61082Y89119D01*
X63122Y87756D01*
X65322Y86671D01*
X67645Y85882D01*
X70052Y85404D01*
X72000Y85276D01*
Y103500D01*
D02*
G37*
G36*
X572421Y122757D02*
X569973Y122596D01*
X567567Y122118D01*
X565243Y121329D01*
X563043Y120244D01*
X561003Y118881D01*
X559158Y117263D01*
X557541Y115418D01*
X556177Y113378D01*
X555092Y111178D01*
X554304Y108855D01*
X553825Y106448D01*
X553664Y104000D01*
X553825Y101552D01*
X554304Y99145D01*
X555092Y96822D01*
X556177Y94622D01*
X557541Y92582D01*
X559158Y90737D01*
X561003Y89119D01*
X563043Y87756D01*
X565243Y86671D01*
X567567Y85882D01*
X569973Y85404D01*
X572421Y85243D01*
X574869Y85404D01*
X577276Y85882D01*
X579599Y86671D01*
X581800Y87756D01*
X583840Y89119D01*
X585684Y90737D01*
X587302Y92582D01*
X588665Y94622D01*
X589750Y96822D01*
X590539Y99145D01*
X591017Y101552D01*
X591178Y104000D01*
X591017Y106448D01*
X590539Y108855D01*
X589750Y111178D01*
X588665Y113378D01*
X587302Y115418D01*
X585684Y117263D01*
X583840Y118881D01*
X581800Y120244D01*
X579599Y121329D01*
X577276Y122118D01*
X574869Y122596D01*
X572421Y122757D01*
D02*
G37*
G36*
X212500D02*
X210052Y122596D01*
X207645Y122118D01*
X205322Y121329D01*
X203122Y120244D01*
X201082Y118881D01*
X199237Y117263D01*
X197619Y115418D01*
X196256Y113378D01*
X195171Y111178D01*
X194382Y108855D01*
X193904Y106448D01*
X193743Y104000D01*
X193904Y101552D01*
X194382Y99145D01*
X195171Y96822D01*
X196256Y94622D01*
X197619Y92582D01*
X199237Y90737D01*
X201082Y89119D01*
X203122Y87756D01*
X205322Y86671D01*
X207645Y85882D01*
X210052Y85404D01*
X212500Y85243D01*
X214948Y85404D01*
X217355Y85882D01*
X219678Y86671D01*
X221878Y87756D01*
X223918Y89119D01*
X225763Y90737D01*
X227381Y92582D01*
X228744Y94622D01*
X229829Y96822D01*
X230618Y99145D01*
X231096Y101552D01*
X231257Y104000D01*
X231096Y106448D01*
X230618Y108855D01*
X229829Y111178D01*
X228744Y113378D01*
X227381Y115418D01*
X225763Y117263D01*
X223918Y118881D01*
X221878Y120244D01*
X219678Y121329D01*
X217355Y122118D01*
X214948Y122596D01*
X212500Y122757D01*
D02*
G37*
G36*
X582701Y79393D02*
Y75168D01*
X586927D01*
X586829Y75908D01*
X586350Y77063D01*
X585589Y78056D01*
X584597Y78817D01*
X583441Y79296D01*
X582701Y79393D01*
D02*
G37*
G36*
X581701Y79393D02*
X580961Y79296D01*
X579806Y78817D01*
X578814Y78056D01*
X578052Y77063D01*
X577574Y75908D01*
X577476Y75168D01*
X581701D01*
Y79393D01*
D02*
G37*
G36*
X89000Y75784D02*
Y71559D01*
X93225D01*
X93128Y72299D01*
X92649Y73454D01*
X91888Y74447D01*
X90895Y75208D01*
X89740Y75687D01*
X89000Y75784D01*
D02*
G37*
G36*
X88000D02*
X87260Y75687D01*
X86105Y75208D01*
X85112Y74447D01*
X84351Y73454D01*
X83872Y72299D01*
X83775Y71559D01*
X88000D01*
Y75784D01*
D02*
G37*
G36*
X581701Y74168D02*
X577476D01*
X577574Y73428D01*
X578052Y72272D01*
X578814Y71280D01*
X579806Y70519D01*
X580961Y70040D01*
X581701Y69943D01*
Y74168D01*
D02*
G37*
G36*
X586927D02*
X582701D01*
Y69943D01*
X583441Y70040D01*
X584597Y70519D01*
X585589Y71280D01*
X586350Y72272D01*
X586829Y73428D01*
X586927Y74168D01*
D02*
G37*
G36*
X562201Y79459D02*
X560961Y79296D01*
X559806Y78817D01*
X558814Y78056D01*
X558052Y77063D01*
X557574Y75908D01*
X557410Y74668D01*
X557574Y73428D01*
X558052Y72272D01*
X558814Y71280D01*
X559806Y70519D01*
X560961Y70040D01*
X562201Y69877D01*
X563441Y70040D01*
X564597Y70519D01*
X565589Y71280D01*
X566351Y72272D01*
X566829Y73428D01*
X566992Y74668D01*
X566829Y75908D01*
X566351Y77063D01*
X565589Y78056D01*
X564597Y78817D01*
X563441Y79296D01*
X562201Y79459D01*
D02*
G37*
G36*
X93225Y70559D02*
X89000D01*
Y66334D01*
X89740Y66431D01*
X90895Y66910D01*
X91888Y67671D01*
X92649Y68664D01*
X93128Y69819D01*
X93225Y70559D01*
D02*
G37*
G36*
X88000D02*
X83775D01*
X83872Y69819D01*
X84351Y68664D01*
X85112Y67671D01*
X86105Y66910D01*
X87260Y66431D01*
X88000Y66334D01*
Y70559D01*
D02*
G37*
G36*
X108500Y75850D02*
X107260Y75687D01*
X106105Y75208D01*
X105112Y74447D01*
X104351Y73454D01*
X103872Y72299D01*
X103709Y71059D01*
X103872Y69819D01*
X104351Y68664D01*
X105112Y67671D01*
X106105Y66910D01*
X107260Y66431D01*
X108500Y66268D01*
X109740Y66431D01*
X110896Y66910D01*
X111888Y67671D01*
X112649Y68664D01*
X113128Y69819D01*
X113291Y71059D01*
X113128Y72299D01*
X112649Y73454D01*
X111888Y74447D01*
X110896Y75208D01*
X109740Y75687D01*
X108500Y75850D01*
D02*
G37*
G36*
X416032Y70175D02*
X415257Y70073D01*
X414535Y69774D01*
X413914Y69298D01*
X413439Y68678D01*
X413139Y67956D01*
X413037Y67181D01*
X413139Y66406D01*
X413439Y65684D01*
X413914Y65064D01*
X414535Y64588D01*
X415257Y64289D01*
X416032Y64187D01*
X416807Y64289D01*
X417529Y64588D01*
X418149Y65064D01*
X418625Y65684D01*
X418924Y66406D01*
X419026Y67181D01*
X418924Y67956D01*
X418625Y68678D01*
X418149Y69298D01*
X417529Y69774D01*
X416807Y70073D01*
X416032Y70175D01*
D02*
G37*
G36*
X515516Y74257D02*
X514374Y74144D01*
X513277Y73811D01*
X512265Y73271D01*
X511378Y72543D01*
X510651Y71656D01*
X510110Y70645D01*
X509777Y69547D01*
X509665Y68406D01*
X509777Y67264D01*
X510110Y66167D01*
X510651Y65155D01*
X511378Y64268D01*
X512265Y63541D01*
X513277Y63000D01*
X514374Y62667D01*
X515516Y62555D01*
X516657Y62667D01*
X517755Y63000D01*
X518766Y63541D01*
X519653Y64268D01*
X520381Y65155D01*
X520921Y66167D01*
X521254Y67264D01*
X521367Y68406D01*
X521254Y69547D01*
X520921Y70645D01*
X520381Y71656D01*
X519653Y72543D01*
X518766Y73271D01*
X517755Y73811D01*
X516657Y74144D01*
X515516Y74257D01*
D02*
G37*
G36*
X462484D02*
X461343Y74144D01*
X460245Y73811D01*
X459234Y73271D01*
X458347Y72543D01*
X457619Y71656D01*
X457079Y70645D01*
X456746Y69547D01*
X456633Y68406D01*
X456746Y67264D01*
X457079Y66167D01*
X457619Y65155D01*
X458347Y64268D01*
X459234Y63541D01*
X460245Y63000D01*
X461343Y62667D01*
X462484Y62555D01*
X463626Y62667D01*
X464723Y63000D01*
X465735Y63541D01*
X466621Y64268D01*
X467349Y65155D01*
X467890Y66167D01*
X468223Y67264D01*
X468335Y68406D01*
X468223Y69547D01*
X467890Y70645D01*
X467349Y71656D01*
X466621Y72543D01*
X465735Y73271D01*
X464723Y73811D01*
X463626Y74144D01*
X462484Y74257D01*
D02*
G37*
G36*
X572201Y69459D02*
X570961Y69296D01*
X569806Y68817D01*
X568814Y68056D01*
X568052Y67063D01*
X567574Y65908D01*
X567410Y64668D01*
X567574Y63428D01*
X568052Y62272D01*
X568814Y61280D01*
X569806Y60519D01*
X570961Y60040D01*
X572201Y59877D01*
X573441Y60040D01*
X574597Y60519D01*
X575589Y61280D01*
X576350Y62272D01*
X576829Y63428D01*
X576992Y64668D01*
X576829Y65908D01*
X576350Y67063D01*
X575589Y68056D01*
X574597Y68817D01*
X573441Y69296D01*
X572201Y69459D01*
D02*
G37*
G36*
X258500Y64994D02*
X257725Y64892D01*
X257003Y64593D01*
X256383Y64117D01*
X255907Y63497D01*
X255608Y62775D01*
X255506Y62000D01*
X255608Y61225D01*
X255907Y60503D01*
X256383Y59883D01*
X257003Y59407D01*
X257725Y59108D01*
X258500Y59006D01*
X259275Y59108D01*
X259997Y59407D01*
X260617Y59883D01*
X261093Y60503D01*
X261392Y61225D01*
X261494Y62000D01*
X261392Y62775D01*
X261093Y63497D01*
X260617Y64117D01*
X259997Y64593D01*
X259275Y64892D01*
X258500Y64994D01*
D02*
G37*
G36*
X98500Y65850D02*
X97260Y65687D01*
X96105Y65208D01*
X95112Y64447D01*
X94351Y63455D01*
X93872Y62299D01*
X93709Y61059D01*
X93872Y59819D01*
X94351Y58663D01*
X95112Y57671D01*
X96105Y56910D01*
X97260Y56431D01*
X98500Y56268D01*
X99740Y56431D01*
X100896Y56910D01*
X101888Y57671D01*
X102649Y58663D01*
X103128Y59819D01*
X103291Y61059D01*
X103128Y62299D01*
X102649Y63455D01*
X101888Y64447D01*
X100896Y65208D01*
X99740Y65687D01*
X98500Y65850D01*
D02*
G37*
G36*
X521339Y60843D02*
X509693D01*
Y49197D01*
X521339D01*
Y60843D01*
D02*
G37*
G36*
X462484Y60871D02*
X461343Y60758D01*
X460245Y60425D01*
X459234Y59885D01*
X458347Y59157D01*
X457619Y58270D01*
X457079Y57259D01*
X456746Y56161D01*
X456633Y55020D01*
X456746Y53878D01*
X457079Y52781D01*
X457619Y51769D01*
X458347Y50883D01*
X459234Y50155D01*
X460245Y49614D01*
X461343Y49281D01*
X462484Y49169D01*
X463626Y49281D01*
X464723Y49614D01*
X465735Y50155D01*
X466621Y50883D01*
X467349Y51769D01*
X467890Y52781D01*
X468223Y53878D01*
X468335Y55020D01*
X468223Y56161D01*
X467890Y57259D01*
X467349Y58270D01*
X466621Y59157D01*
X465735Y59885D01*
X464723Y60425D01*
X463626Y60758D01*
X462484Y60871D01*
D02*
G37*
G36*
X367000Y50760D02*
X366314Y50670D01*
X365761Y50441D01*
X365209Y50212D01*
X364660Y49791D01*
X367000Y47451D01*
Y50760D01*
D02*
G37*
G36*
X368000D02*
Y47451D01*
X370340Y49791D01*
X369791Y50212D01*
X369239Y50441D01*
X368686Y50670D01*
X368000Y50760D01*
D02*
G37*
G36*
X371047Y49084D02*
X368707Y46744D01*
X372017D01*
X371926Y47430D01*
X371697Y47982D01*
X371469Y48535D01*
X371047Y49084D01*
D02*
G37*
G36*
X363953D02*
X363531Y48535D01*
X363302Y47982D01*
X363074Y47430D01*
X362983Y46744D01*
X366293D01*
X363953Y49084D01*
D02*
G37*
G36*
X366293Y45744D02*
X362983D01*
X363074Y45057D01*
X363302Y44505D01*
X363531Y43952D01*
X363953Y43403D01*
X366293Y45744D01*
D02*
G37*
G36*
X372017D02*
X368707D01*
X371047Y43403D01*
X371469Y43952D01*
X371697Y44505D01*
X371926Y45057D01*
X372017Y45744D01*
D02*
G37*
G36*
X368000Y45037D02*
Y41727D01*
X368686Y41817D01*
X369239Y42046D01*
X369791Y42275D01*
X370340Y42696D01*
X368000Y45037D01*
D02*
G37*
G36*
X367000D02*
X364660Y42696D01*
X365209Y42275D01*
X365761Y42046D01*
X366314Y41817D01*
X367000Y41727D01*
Y45037D01*
D02*
G37*
G36*
X353581Y50826D02*
X352395Y50670D01*
X351842Y50441D01*
X351289Y50212D01*
X350340Y49484D01*
X349612Y48535D01*
X349383Y47982D01*
X349154Y47430D01*
X348998Y46244D01*
X349154Y45057D01*
X349383Y44505D01*
X349612Y43952D01*
X350340Y43003D01*
X351289Y42275D01*
X351842Y42046D01*
X352395Y41817D01*
X353581Y41661D01*
X354767Y41817D01*
X355319Y42046D01*
X355872Y42275D01*
X356821Y43003D01*
X357549Y43952D01*
X357778Y44505D01*
X358007Y45057D01*
X358163Y46244D01*
X358007Y47430D01*
X357778Y47982D01*
X357549Y48535D01*
X356821Y49484D01*
X355872Y50212D01*
X355319Y50441D01*
X354767Y50670D01*
X353581Y50826D01*
D02*
G37*
G36*
X360540Y43866D02*
X359354Y43710D01*
X358802Y43481D01*
X358249Y43252D01*
X357300Y42524D01*
X356572Y41575D01*
X356343Y41023D01*
X356114Y40470D01*
X355958Y39284D01*
X356114Y38098D01*
X356343Y37545D01*
X356572Y36993D01*
X357300Y36044D01*
X358249Y35315D01*
X358802Y35086D01*
X359354Y34857D01*
X360540Y34701D01*
X361726Y34857D01*
X362279Y35086D01*
X362831Y35315D01*
X363781Y36044D01*
X364509Y36993D01*
X364738Y37545D01*
X364967Y38098D01*
X365123Y39284D01*
X364967Y40470D01*
X364738Y41023D01*
X364509Y41575D01*
X363781Y42524D01*
X362831Y43252D01*
X362279Y43481D01*
X361726Y43710D01*
X360540Y43866D01*
D02*
G37*
G36*
X354081Y36841D02*
Y33531D01*
X356421Y35871D01*
X355872Y36293D01*
X355319Y36522D01*
X354767Y36751D01*
X354081Y36841D01*
D02*
G37*
G36*
X353081D02*
X352395Y36751D01*
X351842Y36522D01*
X351289Y36293D01*
X350740Y35871D01*
X353081Y33531D01*
Y36841D01*
D02*
G37*
G36*
X152614Y47157D02*
Y32894D01*
X159053D01*
Y40268D01*
X158920Y41621D01*
X158525Y42923D01*
X157884Y44123D01*
X157021Y45174D01*
X155969Y46037D01*
X154770Y46678D01*
X153468Y47073D01*
X152614Y47157D01*
D02*
G37*
G36*
X151614D02*
X150760Y47073D01*
X149459Y46678D01*
X148259Y46037D01*
X147208Y45174D01*
X146345Y44123D01*
X145703Y42923D01*
X145309Y41621D01*
X145175Y40268D01*
Y32894D01*
X151614D01*
Y47157D01*
D02*
G37*
G36*
X357128Y35164D02*
X354788Y32824D01*
X358097D01*
X358007Y33510D01*
X357778Y34063D01*
X357549Y34615D01*
X357128Y35164D01*
D02*
G37*
G36*
X350033Y35164D02*
X349612Y34615D01*
X349383Y34063D01*
X349154Y33510D01*
X349064Y32824D01*
X352373D01*
X350033Y35164D01*
D02*
G37*
G36*
X352374Y31824D02*
X349064D01*
X349154Y31138D01*
X349383Y30586D01*
X349612Y30033D01*
X350033Y29484D01*
X352374Y31824D01*
D02*
G37*
G36*
X358097D02*
X354788D01*
X357128Y29484D01*
X357549Y30033D01*
X357778Y30586D01*
X358007Y31138D01*
X358097Y31824D01*
D02*
G37*
G36*
X623500Y41591D02*
Y29280D01*
X635811D01*
X635692Y30790D01*
X635222Y32751D01*
X634450Y34614D01*
X633396Y36333D01*
X632087Y37866D01*
X630553Y39176D01*
X628834Y40230D01*
X626971Y41001D01*
X625010Y41472D01*
X623500Y41591D01*
D02*
G37*
G36*
X26000D02*
Y29280D01*
X38311D01*
X38192Y30790D01*
X37722Y32751D01*
X36950Y34614D01*
X35896Y36333D01*
X34587Y37866D01*
X33053Y39176D01*
X31334Y40230D01*
X29471Y41001D01*
X27510Y41472D01*
X26000Y41591D01*
D02*
G37*
G36*
X622500D02*
X620990Y41472D01*
X619029Y41001D01*
X617166Y40230D01*
X615447Y39176D01*
X613913Y37866D01*
X612604Y36333D01*
X611550Y34614D01*
X610778Y32751D01*
X610308Y30790D01*
X610189Y29280D01*
X622500D01*
Y41591D01*
D02*
G37*
G36*
X25000D02*
X23490Y41472D01*
X21529Y41001D01*
X19666Y40230D01*
X17947Y39176D01*
X16413Y37866D01*
X15104Y36333D01*
X14050Y34614D01*
X13278Y32751D01*
X12808Y30790D01*
X12689Y29280D01*
X25000D01*
Y41591D01*
D02*
G37*
G36*
X354081Y31117D02*
Y27808D01*
X354767Y27898D01*
X355319Y28127D01*
X355872Y28356D01*
X356421Y28777D01*
X354081Y31117D01*
D02*
G37*
G36*
X353081Y31117D02*
X350740Y28777D01*
X351289Y28356D01*
X351842Y28127D01*
X352395Y27898D01*
X353081Y27808D01*
Y31117D01*
D02*
G37*
G36*
X367500Y36907D02*
X366314Y36751D01*
X365761Y36522D01*
X365209Y36293D01*
X364260Y35565D01*
X363531Y34615D01*
X363302Y34063D01*
X363074Y33510D01*
X362917Y32324D01*
X363074Y31138D01*
X363302Y30586D01*
X363531Y30033D01*
X364260Y29084D01*
X365209Y28356D01*
X365761Y28127D01*
X366314Y27898D01*
X367500Y27742D01*
X368686Y27898D01*
X369239Y28127D01*
X369791Y28356D01*
X370740Y29084D01*
X371469Y30033D01*
X371697Y30586D01*
X371926Y31138D01*
X372082Y32324D01*
X371926Y33510D01*
X371697Y34063D01*
X371469Y34615D01*
X370740Y35565D01*
X369791Y36293D01*
X369239Y36522D01*
X368686Y36751D01*
X367500Y36907D01*
D02*
G37*
G36*
X559762Y32235D02*
X555227D01*
Y27700D01*
X559762D01*
Y32235D01*
D02*
G37*
G36*
X554227D02*
X549692D01*
Y27700D01*
X554227D01*
Y32235D01*
D02*
G37*
G36*
X494500Y24801D02*
Y22372D01*
X496928D01*
X496892Y22647D01*
X496593Y23369D01*
X496117Y23989D01*
X495497Y24465D01*
X494775Y24764D01*
X494500Y24801D01*
D02*
G37*
G36*
X493500D02*
X493225Y24764D01*
X492503Y24465D01*
X491883Y23989D01*
X491407Y23369D01*
X491108Y22647D01*
X491072Y22372D01*
X493500D01*
Y24801D01*
D02*
G37*
G36*
X559762Y26700D02*
X555227D01*
Y22165D01*
X559762D01*
Y26700D01*
D02*
G37*
G36*
X554227D02*
X549692D01*
Y22165D01*
X554227D01*
Y26700D01*
D02*
G37*
G36*
X574412Y32279D02*
X573098Y32106D01*
X571873Y31598D01*
X570821Y30791D01*
X570014Y29739D01*
X569506Y28515D01*
X569333Y27200D01*
X569506Y25885D01*
X570014Y24661D01*
X570821Y23609D01*
X571873Y22802D01*
X573098Y22294D01*
X574412Y22121D01*
X575727Y22294D01*
X576952Y22802D01*
X578003Y23609D01*
X578811Y24661D01*
X579318Y25885D01*
X579491Y27200D01*
X579318Y28515D01*
X578811Y29739D01*
X578003Y30791D01*
X576952Y31598D01*
X575727Y32106D01*
X574412Y32279D01*
D02*
G37*
G36*
X496928Y21372D02*
X494500D01*
Y18944D01*
X494775Y18980D01*
X495497Y19279D01*
X496117Y19755D01*
X496593Y20375D01*
X496892Y21097D01*
X496928Y21372D01*
D02*
G37*
G36*
X493500D02*
X491072D01*
X491108Y21097D01*
X491407Y20375D01*
X491883Y19755D01*
X492503Y19279D01*
X493225Y18980D01*
X493500Y18944D01*
Y21372D01*
D02*
G37*
G36*
X200500Y32424D02*
X199108Y32287D01*
X197769Y31881D01*
X196535Y31221D01*
X195454Y30334D01*
X194566Y29252D01*
X193906Y28019D01*
X193500Y26680D01*
X193363Y25287D01*
X193500Y23895D01*
X193906Y22556D01*
X194566Y21322D01*
X195454Y20241D01*
X196535Y19353D01*
X197769Y18694D01*
X199108Y18288D01*
X200500Y18151D01*
X201892Y18288D01*
X203231Y18694D01*
X204465Y19353D01*
X205546Y20241D01*
X206434Y21322D01*
X207094Y22556D01*
X207500Y23895D01*
X207637Y25287D01*
X207500Y26680D01*
X207094Y28019D01*
X206434Y29252D01*
X205546Y30334D01*
X204465Y31221D01*
X203231Y31881D01*
X201892Y32287D01*
X200500Y32424D01*
D02*
G37*
G36*
X133217D02*
X131824Y32287D01*
X130485Y31881D01*
X129252Y31221D01*
X128170Y30334D01*
X127283Y29252D01*
X126623Y28019D01*
X126217Y26680D01*
X126080Y25287D01*
X126217Y23895D01*
X126623Y22556D01*
X127283Y21322D01*
X128170Y20241D01*
X129252Y19353D01*
X130485Y18694D01*
X131824Y18288D01*
X133217Y18151D01*
X134609Y18288D01*
X135948Y18694D01*
X137181Y19353D01*
X138263Y20241D01*
X139151Y21322D01*
X139810Y22556D01*
X140216Y23895D01*
X140353Y25287D01*
X140216Y26680D01*
X139810Y28019D01*
X139151Y29252D01*
X138263Y30334D01*
X137181Y31221D01*
X135948Y31881D01*
X134609Y32287D01*
X133217Y32424D01*
D02*
G37*
G36*
X159053Y31894D02*
X152614D01*
Y17630D01*
X153468Y17714D01*
X154770Y18109D01*
X155969Y18750D01*
X157021Y19613D01*
X157884Y20665D01*
X158525Y21864D01*
X158920Y23166D01*
X159053Y24520D01*
Y31894D01*
D02*
G37*
G36*
X151614D02*
X145175D01*
Y24520D01*
X145309Y23166D01*
X145703Y21864D01*
X146345Y20665D01*
X147208Y19613D01*
X148259Y18750D01*
X149459Y18109D01*
X150760Y17714D01*
X151614Y17630D01*
Y31894D01*
D02*
G37*
G36*
X181602Y47207D02*
X180249Y47073D01*
X178947Y46678D01*
X177747Y46037D01*
X176696Y45174D01*
X175833Y44123D01*
X175192Y42923D01*
X174797Y41621D01*
X174663Y40268D01*
Y24520D01*
X174797Y23166D01*
X175192Y21864D01*
X175833Y20665D01*
X176696Y19613D01*
X177747Y18750D01*
X178947Y18109D01*
X180249Y17714D01*
X181602Y17581D01*
X182956Y17714D01*
X184258Y18109D01*
X185457Y18750D01*
X186509Y19613D01*
X187372Y20665D01*
X188013Y21864D01*
X188408Y23166D01*
X188541Y24520D01*
Y40268D01*
X188408Y41621D01*
X188013Y42923D01*
X187372Y44123D01*
X186509Y45174D01*
X185457Y46037D01*
X184258Y46678D01*
X182956Y47073D01*
X181602Y47207D01*
D02*
G37*
G36*
X38311Y28280D02*
X26000D01*
Y15968D01*
X27510Y16087D01*
X29471Y16558D01*
X31334Y17330D01*
X33053Y18383D01*
X34587Y19693D01*
X35896Y21226D01*
X36950Y22946D01*
X37722Y24809D01*
X38192Y26769D01*
X38311Y28280D01*
D02*
G37*
G36*
X635811D02*
X623500D01*
Y15968D01*
X625010Y16087D01*
X626971Y16558D01*
X628834Y17330D01*
X630553Y18383D01*
X632087Y19693D01*
X633396Y21226D01*
X634450Y22946D01*
X635222Y24809D01*
X635692Y26769D01*
X635811Y28280D01*
D02*
G37*
G36*
X622500D02*
X610189D01*
X610308Y26769D01*
X610778Y24809D01*
X611550Y22946D01*
X612604Y21226D01*
X613913Y19693D01*
X615447Y18383D01*
X617166Y17330D01*
X619029Y16558D01*
X620990Y16087D01*
X622500Y15968D01*
Y28280D01*
D02*
G37*
G36*
X25000D02*
X12689D01*
X12808Y26769D01*
X13278Y24809D01*
X14050Y22946D01*
X15104Y21226D01*
X16413Y19693D01*
X17947Y18383D01*
X19666Y17330D01*
X21529Y16558D01*
X23490Y16087D01*
X25000Y15968D01*
Y28280D01*
D02*
G37*
%LPD*%
D16*
X87500Y63500D02*
Y68500D01*
D18*
X112500Y104000D02*
D03*
X142500D02*
D03*
X172500D02*
D03*
X472421D02*
D03*
X502421D02*
D03*
X532421D02*
D03*
X572421Y524000D02*
D03*
X532421D02*
D03*
X472421D02*
D03*
X432421D02*
D03*
X212500D02*
D03*
X172500D02*
D03*
X112500D02*
D03*
X72500D02*
D03*
D19*
X72500Y104000D02*
D03*
X212500D02*
D03*
X432421D02*
D03*
X572421D02*
D03*
D20*
X37579Y134000D02*
D03*
Y314000D02*
D03*
Y494000D02*
D03*
X247421Y314000D02*
D03*
X397500D02*
D03*
X247421Y134000D02*
D03*
X397500D02*
D03*
X607342D02*
D03*
Y314000D02*
D03*
Y494000D02*
D03*
X397500D02*
D03*
X247421D02*
D03*
D21*
X258500Y62000D02*
D03*
X332000Y101936D02*
D03*
X416032Y67181D02*
D03*
X494000Y21872D02*
D03*
X555500Y571314D02*
D03*
X596343Y608937D02*
D03*
X286500Y589000D02*
D03*
X182468Y580500D02*
D03*
X154000Y583000D02*
D03*
D22*
X554727Y27200D02*
D03*
D23*
X574412Y27200D02*
D03*
D24*
X353581Y32324D02*
D03*
X367500D02*
D03*
Y46244D02*
D03*
X360540Y39284D02*
D03*
X353581Y46244D02*
D03*
D25*
X16500Y567500D02*
D03*
X395000Y609500D02*
D03*
D26*
X26500Y567500D02*
D03*
X385000Y609500D02*
D03*
D27*
X276307Y123484D02*
D03*
X289693D02*
D03*
X276307Y176516D02*
D03*
X462484Y55020D02*
D03*
Y68406D02*
D03*
X515516D02*
D03*
D28*
X289693Y176516D02*
D03*
D29*
X596343Y585658D02*
D03*
X576342D02*
D03*
X258343Y597157D02*
D03*
X238342D02*
D03*
D30*
X515516Y55020D02*
D03*
D31*
X152114Y32394D02*
D03*
X181602D02*
D03*
X504259Y585264D02*
D03*
X474771D02*
D03*
X106859Y585240D02*
D03*
X77371D02*
D03*
D32*
X98500Y61059D02*
D03*
X108500Y71059D02*
D03*
X88500D02*
D03*
X562201Y74668D02*
D03*
X572201Y64668D02*
D03*
X582201Y74668D02*
D03*
D33*
X353581Y32324D02*
D03*
X367500D02*
D03*
Y46244D02*
D03*
X353581D02*
D03*
X360540Y39284D02*
D03*
%TF.MD5,6c6dcabc7df1c924d093e213b43cf0ef*%
M02*
