G04*
G04 #@! TF.GenerationSoftware,Altium Limited,Altium Designer,19.0.15 (446)*
G04*
G04 Layer_Color=128*
%FSLAX25Y25*%
%MOIN*%
G70*
G01*
G75*
%ADD52C,0.00200*%
D52*
X8728Y603500D02*
X12272D01*
X10500Y601728D02*
Y605272D01*
X8728Y593500D02*
X12272D01*
X10500Y591728D02*
Y595272D01*
X7189Y630000D02*
X30811D01*
X19000Y618189D02*
Y641811D01*
X668189Y630000D02*
X691811D01*
X680000Y618189D02*
Y641811D01*
X668189Y21693D02*
X691811D01*
X680000Y9882D02*
Y33504D01*
X8189Y21693D02*
X31811D01*
X20000Y9882D02*
Y33504D01*
X204642Y630681D02*
X211925D01*
X208283Y627039D02*
Y634323D01*
X312161Y630681D02*
X319445D01*
X315803Y627039D02*
Y634323D01*
X342161Y630681D02*
X349445D01*
X345803Y627039D02*
Y634323D01*
X234642Y630681D02*
X241925D01*
X238283Y627039D02*
Y634323D01*
X576783Y609394D02*
X588988D01*
X582886Y603291D02*
Y615496D01*
X509500Y609394D02*
X521705D01*
X515602Y603291D02*
Y615496D01*
X561429Y616500D02*
X566547D01*
X563988Y613941D02*
Y619059D01*
X532138Y616500D02*
X536862D01*
X534500Y614138D02*
Y618862D01*
X552106Y22000D02*
X558209D01*
X555158Y18949D02*
Y25051D01*
X571791Y22000D02*
X577894D01*
X574843Y18949D02*
Y25051D01*
X216122Y84500D02*
X218878D01*
X217500Y83122D02*
Y85878D01*
X70252Y616634D02*
X74976D01*
X72614Y614271D02*
Y618996D01*
X99543Y616634D02*
X104661D01*
X102102Y614075D02*
Y619193D01*
X47614Y609527D02*
X59819D01*
X53717Y603425D02*
Y615630D01*
X114898Y609527D02*
X127102D01*
X121000Y603425D02*
Y615630D01*
X567750Y85000D02*
X571250D01*
X569500Y83250D02*
Y86750D01*
X577750Y95000D02*
X581250D01*
X579500Y93250D02*
Y96750D01*
X557750Y95000D02*
X561250D01*
X559500Y93250D02*
Y96750D01*
X138250Y47000D02*
X141750D01*
X140000Y45250D02*
Y48750D01*
X148250Y57000D02*
X151750D01*
X150000Y55250D02*
Y58750D01*
X128250Y57000D02*
X131750D01*
X130000Y55250D02*
Y58750D01*
X634622Y36500D02*
X637378D01*
X636000Y35122D02*
Y37878D01*
X490358Y562000D02*
X497642D01*
X494000Y558358D02*
Y565642D01*
X530358Y142000D02*
X537642D01*
X534000Y138358D02*
Y145642D01*
X560358Y142000D02*
X567642D01*
X564000Y138358D02*
Y145642D01*
X590358Y142000D02*
X597642D01*
X594000Y138358D02*
Y145642D01*
X623900Y142000D02*
X644100D01*
X634000Y131900D02*
Y152100D01*
X661244Y172000D02*
X676598D01*
X668921Y164323D02*
Y179677D01*
X451402Y352000D02*
X466756D01*
X459079Y344323D02*
Y359677D01*
X661244Y352000D02*
X676598D01*
X668921Y344323D02*
Y359677D01*
X451402Y172000D02*
X466756D01*
X459079Y164323D02*
Y179677D01*
X655800Y148300D02*
X662200D01*
X659000Y145100D02*
Y151500D01*
X465800Y135700D02*
X472200D01*
X469000Y132500D02*
Y138900D01*
X530358Y562000D02*
X537642D01*
X534000Y558358D02*
Y565642D01*
X590358Y562000D02*
X597642D01*
X594000Y558358D02*
Y565642D01*
X630358Y562000D02*
X637642D01*
X634000Y558358D02*
Y565642D01*
X661244Y532000D02*
X676598D01*
X668921Y524323D02*
Y539677D01*
X655800Y568300D02*
X662200D01*
X659000Y565100D02*
Y571500D01*
X451402Y532000D02*
X466756D01*
X459079Y524323D02*
Y539677D01*
X465800Y555700D02*
X472200D01*
X469000Y552500D02*
Y558900D01*
X483900Y142000D02*
X504100D01*
X494000Y131900D02*
Y152100D01*
X634571Y617657D02*
X638114D01*
X636343Y615886D02*
Y619429D01*
X654571Y617657D02*
X658114D01*
X656343Y615886D02*
Y619429D01*
X428057Y36000D02*
X432782D01*
X430419Y33638D02*
Y38362D01*
X414138Y36000D02*
X418862D01*
X416500Y33638D02*
Y38362D01*
X414138Y49919D02*
X418862D01*
X416500Y47557D02*
Y52282D01*
X428057Y49919D02*
X432782D01*
X430419Y47557D02*
Y52282D01*
X421098Y42960D02*
X425822D01*
X423460Y40598D02*
Y45322D01*
X64358Y562000D02*
X71642D01*
X68000Y558358D02*
Y565642D01*
X104358Y142000D02*
X111642D01*
X108000Y138358D02*
Y145642D01*
X134358Y142000D02*
X141642D01*
X138000Y138358D02*
Y145642D01*
X164358Y142000D02*
X171642D01*
X168000Y138358D02*
Y145642D01*
X197900Y142000D02*
X218100D01*
X208000Y131900D02*
Y152100D01*
X235244Y172000D02*
X250598D01*
X242921Y164323D02*
Y179677D01*
X25402Y352000D02*
X40756D01*
X33079Y344323D02*
Y359677D01*
X235244Y352000D02*
X250598D01*
X242921Y344323D02*
Y359677D01*
X25402Y172000D02*
X40756D01*
X33079Y164323D02*
Y179677D01*
X229800Y148300D02*
X236200D01*
X233000Y145100D02*
Y151500D01*
X39800Y135700D02*
X46200D01*
X43000Y132500D02*
Y138900D01*
X104358Y562000D02*
X111642D01*
X108000Y558358D02*
Y565642D01*
X164358Y562000D02*
X171642D01*
X168000Y558358D02*
Y565642D01*
X204358Y562000D02*
X211642D01*
X208000Y558358D02*
Y565642D01*
X235244Y532000D02*
X250598D01*
X242921Y524323D02*
Y539677D01*
X229800Y568300D02*
X236200D01*
X233000Y565100D02*
Y571500D01*
X25402Y532000D02*
X40756D01*
X33079Y524323D02*
Y539677D01*
X39800Y555700D02*
X46200D01*
X43000Y552500D02*
Y558900D01*
X57900Y142000D02*
X78100D01*
X68000Y131900D02*
Y152100D01*
X284024Y34106D02*
X288748D01*
X286386Y31744D02*
Y36469D01*
X254339Y34106D02*
X259457D01*
X256898Y31547D02*
Y36665D01*
X299181Y41213D02*
X311386D01*
X305283Y35110D02*
Y47315D01*
X231898Y41213D02*
X244102D01*
X238000Y35110D02*
Y47315D01*
X195622Y584000D02*
X198378D01*
X197000Y582622D02*
Y585378D01*
X327728Y484000D02*
X331272D01*
X329500Y482228D02*
Y485772D01*
X327728Y474000D02*
X331272D01*
X329500Y472228D02*
Y475772D01*
X358197Y293957D02*
X365992D01*
X362094Y290059D02*
Y297854D01*
M02*
